<?xml version="1.0" encoding="UTF-8" standalone="no"?>
<svg
   xmlns:dc="http://purl.org/dc/elements/1.1/"
   xmlns:cc="http://creativecommons.org/ns#"
   xmlns:rdf="http://www.w3.org/1999/02/22-rdf-syntax-ns#"
   xmlns:svg="http://www.w3.org/2000/svg"
   xmlns="http://www.w3.org/2000/svg"
   viewBox="0 0 747.54999 118.175"
   height="118.175"
   width="747.54999"
   xml:space="preserve"
   version="1.1"
   id="svg2"><metadata
     id="metadata8"><rdf:RDF><cc:Work
         rdf:about=""><dc:format>image/svg+xml</dc:format><dc:type
           rdf:resource="http://purl.org/dc/dcmitype/StillImage" /><dc:title></dc:title></cc:Work></rdf:RDF></metadata><defs
     id="defs6" /><g
     transform="matrix(1.25,0,0,-1.25,0,118.175)"
     id="g10"><g
       transform="scale(0.1,0.1)"
       id="g12"><path
         id="path14"
         style="fill:#ffffff;fill-opacity:1;fill-rule:evenodd;stroke:none"
         d="M 102.973,39.6953 C 410.84,237.441 759.813,95.1953 933.645,0 692.863,95.0977 339.855,117.395 102.973,39.6953" /><path
         id="path16"
         style="fill:#ffffff;fill-opacity:1;fill-rule:evenodd;stroke:none"
         d="M 178.188,154.688 C 128.172,117.758 99.9844,86.6094 99.9844,86.6094 c 0,-1.3438 29.0816,16.2926 78.2036,37.0116 l 0,31.067 z m 0,122.644 c -32.434,62.801 -21.25,134.078 -21.25,134.078 0,0 -54.915,-125.894 21.25,-200.875 l 0,66.797 z m 0,334.496 0,-114.367 c -50.711,-29.152 -84.7935,-83.41 -84.7935,-145.543 0,-62.117 34.0825,-116.359 84.7935,-145.527 l 0,-20.399 C 157.762,172.168 137.82,157.441 121.332,144.789 48.3359,191.352 0,272.406 0,364.609 0,479.086 74.4766,576.363 178.188,611.828 l 0,0 z m 0,-114.367 0,114.367 c 23.527,8.039 48.531,12.902 74.531,14.059 -1.344,-13.055 -2.028,-26.321 -2.028,-39.739 0,-22.535 1.957,-44.621 5.7,-66.109 -28.426,-1.203 -55.039,-9.273 -78.203,-22.578 z m 0,-311.469 c 17.898,12.09 36.175,23.5 52.902,32.184 -8.168,5.207 -15.82,11.14 -22.719,17.926 -12.844,12.621 -22.687,26.695 -30.183,41.23 l 0,-66.797 1.968,-1.937 c 3.211,-3.032 6.59,-5.868 10.055,-8.504 -4.109,1.953 -8.113,4.062 -12.023,6.297 l 0,-20.399 z m 0,-62.371 0,31.067 c 96.226,71.027 273.281,163.457 486.164,96.746 C 987.887,150.055 1193.79,12.1328 1443.8,74.2109 c 250.02,62.0591 272.08,198.6251 272.08,198.6251 0,0 -44.14,-192.8712 -290.47,-235.1954 C 1179.09,-4.69141 952.168,42.7656 663.559,150.359 468.758,222.98 280.207,166.652 178.188,123.621 l 0,0 z m 465.25,821.793 c 147.929,0 275.25,-87.211 332.105,-212.394 l -115.73,0 c -51.079,63.011 -129.625,103.39 -217.731,103.39 -86.637,0 -164.043,-39.027 -215.172,-100.265 2.75,2.195 5.543,4.359 8.477,6.453 120.941,86.328 282.23,-8.825 282.23,-8.825 0,0 -153.262,44.301 -256.906,-28.343 -103.613,-72.66 -86.953,-218.106 -86.953,-218.106 0,0 -0.688,1.93 -1.731,5.434 0.43,-1.68 0.875,-3.34 1.352,-5.016 -24.852,18.309 -54.984,30.258 -87.781,33.399 -3.91,21.097 -5.961,42.808 -5.961,65.007 0,198.418 162.871,359.266 363.801,359.266 l 0,0" /><path
         id="path18"
         style="fill:#ffffff;fill-opacity:1;fill-rule:evenodd;stroke:none"
         d="m 991.879,203.879 c 0,0 154.421,-79.059 299.641,-66.184 145.22,12.875 189.35,64.336 189.35,64.336 0,0 -53.31,-98.347 -193.02,-103.863 -139.72,-5.5157 -295.971,102.023 -295.971,105.711" /><path
         id="path20"
         style="fill:#ffffff;fill-opacity:1;fill-rule:evenodd;stroke:none"
         d="m 873.48,573.527 129.809,0 0,129.793 -129.809,0 0,-129.793 z" /><path
         id="path22"
         style="fill:#ffffff;fill-opacity:1;fill-rule:evenodd;stroke:none"
         d="m 1388.96,243.32 100.391,0 0,100.391 -100.391,0 0,-100.391 z" /><path
         id="path24"
         style="fill:#ffffff;fill-opacity:1;fill-rule:evenodd;stroke:none"
         d="m 1029.9,649.188 173.09,0 0,173.066 -173.09,0 0,-173.066 z" /><path
         id="path26"
         style="fill:#ffffff;fill-opacity:1;fill-rule:evenodd;stroke:none"
         d="m 1532.4,349.684 173.113,0 0,173.066 -173.113,0 0,-173.066 z" /><path
         id="path28"
         style="fill:#ffffff;fill-opacity:1;fill-rule:evenodd;stroke:none"
         d="m 1219.59,539.406 96.4922,0 0,96.4766 -96.4922,0 0,-96.4766 z" /><path
         id="path30"
         style="fill:#ffffff;fill-opacity:1;fill-rule:evenodd;stroke:none"
         d="m 1284.12,349.352 96.4883,0 0,96.4766 -96.4883,0 0,-96.4766 z" /><path
         id="path32"
         style="fill:#ffffff;fill-opacity:1;fill-rule:evenodd;stroke:none"
         d="m 1080.99,339.719 96.5,0 0,96.4922 -96.5,0 0,-96.4922 z" /><path
         id="path34"
         style="fill:#ffffff;fill-opacity:1;fill-rule:evenodd;stroke:none"
         d="m 1419.26,536.066 96.5,0 0,96.4961 -96.5,0 0,-96.4961 z" /><path
         id="path36"
         style="fill:#ffffff;fill-opacity:1;fill-rule:nonzero;stroke:none"
         d="m 2385.54,439.367 c 0,30.285 -4.08,57.453 -12.22,81.5 -8.15,24.055 -19.73,44.41 -34.74,61.082 -15.02,16.664 -33.27,29.457 -54.78,38.367 -21.51,8.903 -45.75,13.36 -72.72,13.36 l -107.27,0 0,-388.617 107.27,0 c 26.97,0 51.21,4.453 72.72,13.371 21.51,8.894 39.76,21.687 54.78,38.355 15.01,16.672 26.59,37.035 34.74,61.086 8.14,24.043 12.22,51.211 12.22,81.496 z m 104.98,0 c 0,-40.461 -6.75,-77.621 -20.24,-111.465 -13.49,-33.847 -32.44,-62.992 -56.88,-87.422 -24.43,-24.433 -53.82,-43.39 -88.18,-56.875 -34.36,-13.496 -72.4,-20.238 -114.14,-20.238 l -210.72,0 0,552.004 210.72,0 c 41.74,0 79.78,-6.812 114.14,-20.426 34.36,-13.617 63.75,-32.578 88.18,-56.879 24.44,-24.304 43.39,-53.382 56.88,-87.226 13.49,-33.852 20.24,-71.004 20.24,-111.473" /><path
         id="path38"
         style="fill:#ffffff;fill-opacity:1;fill-rule:nonzero;stroke:none"
         d="m 2627.94,555.039 0,-391.672 -94.29,0 0,391.672 94.29,0 z m 14.13,114.141 c 0,-8.149 -1.66,-15.785 -4.97,-22.907 -3.31,-7.128 -7.7,-13.359 -13.16,-18.703 -5.48,-5.347 -11.9,-9.609 -19.29,-12.789 -7.38,-3.183 -15.27,-4.769 -23.66,-4.769 -8.15,0 -15.84,1.586 -23.1,4.769 -7.25,3.18 -13.55,7.442 -18.9,12.789 -5.34,5.344 -9.61,11.575 -12.78,18.703 -3.19,7.122 -4.77,14.758 -4.77,22.907 0,8.398 1.58,16.285 4.77,23.668 3.17,7.379 7.44,13.738 12.78,19.086 5.35,5.343 11.65,9.605 18.9,12.789 7.26,3.179 14.95,4.769 23.1,4.769 8.39,0 16.28,-1.59 23.66,-4.769 7.39,-3.184 13.81,-7.446 19.29,-12.789 5.46,-5.348 9.85,-11.707 13.16,-19.086 3.31,-7.383 4.97,-15.27 4.97,-23.668" /><path
         id="path40"
         style="fill:#ffffff;fill-opacity:1;fill-rule:nonzero;stroke:none"
         d="m 2831.79,368.75 c 11.7,0 21.88,1.582 30.54,4.766 8.65,3.183 15.84,7.57 21.57,13.175 5.72,5.594 10.05,12.34 12.98,20.235 2.92,7.879 4.38,16.531 4.38,25.957 0,19.336 -5.79,34.676 -17.36,46 -11.59,11.316 -28.96,16.984 -52.11,16.984 -23.16,0 -40.54,-5.668 -52.11,-16.984 -11.58,-11.324 -17.37,-26.664 -17.37,-46 0,-9.16 1.46,-17.695 4.39,-25.578 2.92,-7.891 7.26,-14.696 12.98,-20.43 5.73,-5.723 12.98,-10.176 21.76,-13.359 8.78,-3.184 18.9,-4.766 30.35,-4.766 z m 103.45,-221.824 c 0,7.793 -2.29,14.16 -6.87,19.09 -4.58,4.941 -10.82,8.769 -18.71,11.504 -7.89,2.734 -17.12,4.738 -27.67,6.046 -10.57,1.297 -21.76,1.942 -33.6,1.942 -11.83,0 -24.04,0 -36.64,0 -12.6,0 -24.76,1.398 -36.46,4.199 -10.69,-5.859 -19.28,-12.781 -25.77,-20.801 -6.49,-8.015 -9.73,-17.234 -9.73,-27.676 0,-6.875 1.71,-13.3 5.15,-19.277 3.44,-5.976 8.91,-11.133 16.42,-15.461 7.5,-4.324 17.23,-7.6912 29.2,-10.1131 11.96,-2.4258 26.59,-3.6367 43.9,-3.6367 17.56,0 32.7,1.3711 45.43,4.0937 12.72,2.7344 23.22,6.4921 31.49,11.3091 8.27,4.804 14.32,10.527 18.13,17.148 3.82,6.633 5.73,13.84 5.73,21.633 z M 2831.79,561.91 c 16.79,0 32.57,-1.719 47.34,-5.156 14.75,-3.434 28.24,-8.465 40.46,-15.078 l 112.62,0 0,-35.117 c 0,-5.86 -1.54,-10.442 -4.59,-13.746 -3.05,-3.309 -8.27,-5.602 -15.65,-6.872 l -35.12,-6.488 c 2.54,-6.621 4.52,-13.613 5.92,-20.996 1.39,-7.383 2.1,-15.144 2.1,-23.293 0,-19.336 -3.89,-36.836 -11.65,-52.488 -7.76,-15.645 -18.45,-28.946 -32.06,-39.883 -13.62,-10.945 -29.78,-19.414 -48.48,-25.391 -18.71,-5.988 -39.01,-8.972 -60.89,-8.972 -14.76,0 -29.15,1.394 -43.14,4.199 -12.21,-7.434 -18.32,-15.774 -18.32,-24.992 0,-7.949 3.63,-13.778 10.88,-17.5 7.25,-3.711 16.79,-6.336 28.63,-7.879 11.83,-1.535 25.25,-2.309 40.27,-2.309 15.01,0 30.41,-0.633 46.19,-1.914 15.78,-1.277 31.18,-3.512 46.2,-6.707 15,-3.183 28.43,-8.23 40.27,-15.129 11.83,-6.89 21.37,-16.277 28.63,-28.152 7.25,-11.863 10.88,-27.117 10.88,-45.762 0,-17.363 -4.27,-34.211 -12.79,-50.555 -8.53,-16.3394 -20.87,-30.8902 -37.03,-43.6636 -16.17,-12.7539 -35.95,-23.0273 -59.36,-30.8281 -23.42,-7.7852 -50.14,-11.6797 -80.17,-11.6797 -29.77,0 -55.61,2.8711 -77.49,8.5937 -21.89,5.7188 -40.02,13.3594 -54.4,22.8985 -14.38,9.5508 -25.14,20.5586 -32.26,33.0273 -7.12,12.4729 -10.68,25.4489 -10.68,38.9379 0,18.32 5.59,33.718 16.79,46.187 11.2,12.465 26.72,22.395 46.57,29.777 -9.67,5.344 -17.43,12.461 -23.28,21.379 -5.86,8.907 -8.78,20.477 -8.78,34.735 0,5.851 1.01,11.894 3.05,18.136 2.04,6.231 5.16,12.403 9.36,18.512 4.19,6.106 9.47,11.899 15.84,17.367 6.35,5.477 13.86,10.371 22.52,14.696 -19.85,10.691 -35.44,24.941 -46.76,42.765 -11.33,17.801 -16.99,38.68 -16.99,62.594 0,19.348 3.87,36.844 11.64,52.496 7.76,15.653 18.58,29.012 32.45,40.082 13.87,11.071 30.28,19.528 49.25,25.387 18.95,5.851 39.63,8.781 62.03,8.781" /><path
         id="path42"
         style="fill:#ffffff;fill-opacity:1;fill-rule:nonzero;stroke:none"
         d="m 3153.59,555.039 0,-391.672 -94.29,0 0,391.672 94.29,0 z m 14.12,114.141 c 0,-8.149 -1.66,-15.785 -4.96,-22.907 -3.31,-7.128 -7.7,-13.359 -13.17,-18.703 -5.47,-5.347 -11.89,-9.609 -19.28,-12.789 -7.38,-3.183 -15.26,-4.769 -23.66,-4.769 -8.15,0 -15.85,1.586 -23.1,4.769 -7.25,3.18 -13.55,7.442 -18.89,12.789 -5.35,5.344 -9.61,11.575 -12.79,18.703 -3.19,7.122 -4.78,14.758 -4.78,22.907 0,8.398 1.59,16.285 4.78,23.668 3.18,7.379 7.44,13.738 12.79,19.086 5.34,5.343 11.64,9.605 18.89,12.789 7.25,3.179 14.95,4.769 23.1,4.769 8.4,0 16.28,-1.59 23.66,-4.769 7.39,-3.184 13.81,-7.446 19.28,-12.789 5.47,-5.348 9.86,-11.707 13.17,-19.086 3.3,-7.383 4.96,-15.27 4.96,-23.668" /><path
         id="path44"
         style="fill:#ffffff;fill-opacity:1;fill-rule:nonzero;stroke:none"
         d="m 3350.57,157.266 c -33.85,0 -59.94,9.597 -78.26,28.82 -18.32,19.207 -27.49,45.738 -27.49,79.59 l 0,218.738 -39.69,0 c -5.1,0 -9.49,1.656 -13.18,4.961 -3.69,3.305 -5.52,8.273 -5.52,14.895 l 0,37.406 62.97,10.308 19.86,106.887 c 1.01,5.09 3.37,9.031 7.06,11.832 3.69,2.797 8.34,4.199 13.93,4.199 l 48.87,0 0,-123.3 103.07,0 0,-67.188 -103.07,0 0,-212.246 c 0,-12.219 3.05,-21.758 9.16,-28.633 6.1,-6.875 14.25,-10.301 24.43,-10.301 5.85,0 10.75,0.692 14.7,2.098 3.94,1.387 7.38,2.863 10.3,4.387 2.92,1.519 5.54,2.984 7.83,4.394 2.29,1.395 4.59,2.098 6.87,2.098 2.8,0 5.09,-0.703 6.88,-2.098 1.77,-1.41 3.68,-3.508 5.72,-6.3 l 28.25,-45.809 c -13.75,-11.457 -29.53,-20.109 -47.33,-25.957 -17.82,-5.859 -36.27,-8.781 -55.36,-8.781" /><path
         id="path46"
         style="fill:#ffffff;fill-opacity:1;fill-rule:nonzero;stroke:none"
         d="m 3602.89,222.156 c 9.67,0 18.57,0.879 26.73,2.629 8.13,1.758 15.84,4.387 23.09,7.891 7.25,3.515 14.25,7.832 21,12.969 6.74,5.128 13.55,11.21 20.42,18.222 l 0,65.559 c -27.49,0 -50.46,-1.731 -68.91,-5.188 -18.45,-3.457 -33.28,-7.89 -44.47,-13.261 -11.2,-5.391 -19.15,-11.668 -23.86,-18.848 -4.71,-7.18 -7.06,-14.988 -7.06,-23.445 0,-16.661 4.9,-28.586 14.7,-35.762 9.8,-7.18 22.58,-10.766 38.36,-10.766 z m 183.24,-58.789 -42.37,0 c -8.92,0 -15.91,1.34 -21,4.004 -5.09,2.68 -8.91,8.078 -11.45,16.234 l -8.4,27.86 c -9.92,-8.906 -19.66,-16.727 -29.2,-23.477 -9.55,-6.738 -19.41,-12.402 -29.59,-16.98 -10.18,-4.582 -20.99,-8.02 -32.45,-10.313 -11.45,-2.289 -24.18,-3.429 -38.17,-3.429 -16.55,0 -31.82,2.238 -45.81,6.687 -14,4.477 -26.02,11.176 -36.08,20.11 -10.05,8.933 -17.88,20.05 -23.48,33.332 -5.59,13.281 -8.39,28.718 -8.39,46.343 0,14.809 3.87,29.426 11.65,43.86 7.75,14.425 20.67,27.441 38.74,39.062 18.06,11.621 42.12,21.262 72.15,28.914 30.02,7.66 67.31,11.496 111.85,11.496 l 0,23.078 c 0,26.415 -5.54,45.965 -16.61,58.661 -11.06,12.695 -27.17,19.043 -48.29,19.043 -15.27,0 -28,-1.782 -38.18,-5.348 -10.17,-3.563 -19.02,-7.57 -26.52,-12.02 -7.51,-4.457 -14.45,-8.461 -20.81,-12.027 -6.36,-3.562 -13.36,-5.34 -21,-5.34 -6.35,0 -11.83,1.649 -16.41,4.957 -4.58,3.305 -8.27,7.375 -11.07,12.215 l -17.17,30.16 c 45.04,41.227 99.37,61.84 162.99,61.84 22.91,0 43.33,-3.758 61.27,-11.258 17.95,-7.511 33.15,-17.945 45.63,-31.304 12.46,-13.36 21.94,-29.336 28.44,-47.911 6.48,-18.582 9.73,-38.933 9.73,-61.074 l 0,-247.375" /><path
         id="path48"
         style="fill:#ffffff;fill-opacity:1;fill-rule:nonzero;stroke:none"
         d="m 3846.83,163.367 94.2891,0 0,567.273 -94.2891,0 0,-567.273 z" /><path
         id="path50"
         style="fill:#ffffff;fill-opacity:1;fill-rule:nonzero;stroke:none"
         d="m 4438.92,439.367 c 0,30.285 -4.02,57.453 -12.04,81.5 -8.01,24.055 -19.53,44.477 -34.54,61.274 -15.02,16.797 -33.28,29.644 -54.78,38.558 -21.51,8.906 -45.75,13.36 -72.73,13.36 -26.97,0 -51.28,-4.454 -72.91,-13.36 -21.63,-8.914 -40.02,-21.761 -55.15,-38.558 -15.15,-16.797 -26.79,-37.219 -34.93,-61.274 -8.16,-24.047 -12.22,-51.215 -12.22,-81.5 0,-30.285 4.06,-57.453 12.22,-81.496 8.14,-24.051 19.78,-44.414 34.93,-61.086 15.13,-16.668 33.52,-29.461 55.15,-38.355 21.63,-8.918 45.94,-13.371 72.91,-13.371 26.98,0 51.22,4.453 72.73,13.371 21.5,8.894 39.76,21.687 54.78,38.355 15.01,16.672 26.53,37.035 34.54,61.086 8.02,24.043 12.04,51.211 12.04,81.496 z m 105.36,0 c 0,-40.461 -6.75,-77.941 -20.24,-112.422 -13.49,-34.484 -32.45,-64.316 -56.88,-89.511 -24.43,-25.196 -53.82,-44.864 -88.19,-58.985 -34.35,-14.125 -72.4,-21.183 -114.14,-21.183 -41.73,0 -79.84,7.058 -114.32,21.183 -34.49,14.121 -64.02,33.789 -88.57,58.985 -24.56,25.195 -43.58,55.027 -57.07,89.511 -13.49,34.481 -20.23,71.961 -20.23,112.422 0,40.469 6.74,77.938 20.23,112.426 13.49,34.48 32.51,64.324 57.07,89.516 24.55,25.195 54.08,44.859 88.57,58.98 34.48,14.125 72.59,21.188 114.32,21.188 41.74,0 79.79,-7.125 114.14,-21.379 34.37,-14.254 63.76,-33.914 88.19,-58.981 24.43,-25.066 43.39,-54.844 56.88,-89.324 13.49,-34.488 20.24,-71.957 20.24,-112.426" /><path
         id="path52"
         style="fill:#ffffff;fill-opacity:1;fill-rule:nonzero;stroke:none"
         d="m 4856.92,472.199 c -2.8,-3.566 -5.53,-6.359 -8.2,-8.398 -2.68,-2.043 -6.56,-3.059 -11.65,-3.059 -4.83,0 -9.54,1.465 -14.12,4.395 -4.58,2.929 -10.06,6.234 -16.42,9.926 -6.35,3.687 -13.93,7 -22.71,9.921 -8.78,2.926 -19.66,4.391 -32.64,4.391 -16.54,0 -31.05,-2.992 -43.51,-8.969 -12.47,-5.98 -22.86,-14.566 -31.12,-25.765 -8.27,-11.203 -14.44,-24.758 -18.51,-40.657 -4.08,-15.91 -6.11,-33.914 -6.11,-54.011 0,-20.879 2.22,-39.453 6.68,-55.743 4.45,-16.289 10.88,-29.96 19.28,-41.035 8.4,-11.066 18.57,-19.465 30.54,-25.199 11.96,-5.719 25.45,-8.582 40.47,-8.582 15.01,0 27.15,1.836 36.45,5.527 9.29,3.692 17.11,7.762 23.48,12.215 6.36,4.457 11.89,8.528 16.6,12.219 4.71,3.691 9.99,5.535 15.84,5.535 7.64,0 13.37,-2.926 17.19,-8.777 l 27.1,-34.356 c -10.44,-12.214 -21.76,-22.461 -33.98,-30.73 -12.21,-8.274 -24.88,-14.887 -37.99,-19.856 -13.1,-4.961 -26.66,-8.457 -40.65,-10.496 -13.99,-2.035 -27.86,-3.047 -41.61,-3.047 -24.18,0 -46.95,4.52 -68.33,13.543 -21.38,9.036 -40.02,22.207 -55.93,39.512 -15.91,17.305 -28.51,38.496 -37.79,63.567 -9.29,25.054 -13.93,53.632 -13.93,85.703 0,28.75 4.13,55.41 12.4,79.968 8.28,24.551 20.42,45.813 36.46,63.75 16.03,17.946 35.89,32.004 59.55,42.184 23.67,10.176 50.9,15.27 81.7,15.27 29.26,0 54.9,-4.715 76.91,-14.122 22.01,-9.421 41.81,-22.906 59.37,-40.464 l -24.82,-34.36" /><path
         id="path54"
         style="fill:#ffffff;fill-opacity:1;fill-rule:nonzero;stroke:none"
         d="m 5071.46,493.574 c -27.5,0 -49,-7.761 -64.53,-23.285 -15.51,-15.523 -25.45,-37.547 -29.77,-66.043 l 177.13,0 c 0,12.219 -1.65,23.734 -4.96,34.555 -3.31,10.808 -8.4,20.293 -15.27,28.437 -6.87,8.137 -15.52,14.563 -25.96,19.278 -10.43,4.707 -22.65,7.058 -36.64,7.058 z m -1.92,67.571 c 24.69,0 47.4,-3.946 68.15,-11.832 20.74,-7.891 38.61,-19.411 53.63,-34.547 15.02,-15.149 26.72,-33.727 35.12,-55.735 8.39,-22.019 12.59,-47.144 12.59,-75.398 0,-7.129 -0.32,-13.047 -0.94,-17.754 -0.65,-4.707 -1.79,-8.399 -3.44,-11.063 -1.66,-2.675 -3.89,-4.582 -6.68,-5.722 -2.8,-1.153 -6.37,-1.723 -10.69,-1.723 l -242.03,0 c 2.8,-40.215 13.62,-69.734 32.46,-88.562 18.82,-18.836 43.76,-28.25 74.81,-28.25 15.27,0 28.45,1.777 39.51,5.339 11.08,3.567 20.74,7.508 29.01,11.836 8.28,4.329 15.52,8.274 21.76,11.836 6.24,3.555 12.28,5.34 18.14,5.34 3.82,0 7.12,-0.758 9.92,-2.281 2.8,-1.535 5.21,-3.703 7.26,-6.496 l 27.49,-34.356 c -10.44,-12.214 -22.15,-22.461 -35.13,-30.73 -12.98,-8.274 -26.52,-14.887 -40.66,-19.856 -14.12,-4.961 -28.5,-8.457 -43.13,-10.496 -14.64,-2.035 -28.82,-3.047 -42.57,-3.047 -27.23,0 -52.55,4.52 -75.97,13.543 -23.41,9.036 -43.77,22.395 -61.07,40.09 -17.31,17.684 -30.92,39.571 -40.85,65.653 -9.92,26.086 -14.88,56.308 -14.88,90.664 0,26.726 4.32,51.855 12.98,75.398 8.64,23.535 21.05,44.027 37.21,61.461 16.17,17.43 35.89,31.238 59.17,41.418 23.29,10.176 49.56,15.27 78.83,15.27" /><path
         id="path56"
         style="fill:#ffffff;fill-opacity:1;fill-rule:nonzero;stroke:none"
         d="m 5401.26,222.156 c 9.67,0 18.57,0.879 26.73,2.629 8.13,1.758 15.84,4.387 23.09,7.891 7.25,3.515 14.25,7.832 21,12.969 6.74,5.128 13.55,11.21 20.42,18.222 l 0,65.559 c -27.49,0 -50.46,-1.731 -68.91,-5.188 -18.45,-3.457 -33.28,-7.89 -44.47,-13.261 -11.2,-5.391 -19.15,-11.668 -23.86,-18.848 -4.71,-7.18 -7.06,-14.988 -7.06,-23.445 0,-16.661 4.9,-28.586 14.7,-35.762 9.8,-7.18 22.58,-10.766 38.36,-10.766 z m 183.24,-58.789 -42.37,0 c -8.92,0 -15.91,1.34 -21,4.004 -5.09,2.68 -8.91,8.078 -11.45,16.234 l -8.4,27.86 c -9.92,-8.906 -19.66,-16.727 -29.2,-23.477 -9.55,-6.738 -19.41,-12.402 -29.59,-16.98 -10.19,-4.582 -21,-8.02 -32.45,-10.313 -11.45,-2.289 -24.18,-3.429 -38.17,-3.429 -16.55,0 -31.82,2.238 -45.82,6.687 -13.99,4.477 -26.01,11.176 -36.07,20.11 -10.05,8.933 -17.88,20.05 -23.48,33.332 -5.59,13.281 -8.39,28.718 -8.39,46.343 0,14.809 3.87,29.426 11.65,43.86 7.75,14.425 20.67,27.441 38.74,39.062 18.06,11.621 42.12,21.262 72.14,28.914 30.03,7.66 67.32,11.496 111.86,11.496 l 0,23.078 c 0,26.415 -5.54,45.965 -16.61,58.661 -11.07,12.695 -27.17,19.043 -48.29,19.043 -15.27,0 -28,-1.782 -38.18,-5.348 -10.17,-3.563 -19.02,-7.57 -26.52,-12.02 -7.51,-4.457 -14.45,-8.461 -20.81,-12.027 -6.36,-3.562 -13.36,-5.34 -21,-5.34 -6.35,0 -11.83,1.649 -16.41,4.957 -4.58,3.305 -8.27,7.375 -11.07,12.215 l -17.17,30.16 c 45.03,41.227 99.37,61.84 162.99,61.84 22.91,0 43.33,-3.758 61.27,-11.258 17.95,-7.511 33.15,-17.945 45.63,-31.304 12.46,-13.36 21.94,-29.336 28.44,-47.911 6.48,-18.582 9.73,-38.933 9.73,-61.074 l 0,-247.375" /><path
         id="path58"
         style="fill:#ffffff;fill-opacity:1;fill-rule:nonzero;stroke:none"
         d="m 5639.08,163.367 0,391.672 57.65,0 c 12.21,0 20.22,-5.726 24.04,-17.184 l 6.5,-30.917 c 7.88,8.14 16.22,15.519 25,22.14 8.77,6.617 18.06,12.344 27.87,17.176 9.79,4.836 20.29,8.527 31.49,11.074 11.19,2.539 23.41,3.817 36.65,3.817 21.38,0 40.33,-3.625 56.88,-10.879 16.54,-7.254 30.35,-17.434 41.41,-30.539 11.08,-13.11 19.47,-28.766 25.2,-46.954 5.73,-18.203 8.59,-38.242 8.59,-60.125 l 0,-249.281 -94.3,0 0,249.281 c 0,23.915 -5.52,42.43 -16.6,55.536 -11.07,13.109 -27.67,19.668 -49.81,19.668 -16.29,0 -31.56,-3.692 -45.81,-11.071 -14.26,-7.386 -27.75,-17.433 -40.47,-30.16 l 0,-283.254 -94.29,0" /></g></g></svg>