<?xml version="1.0" encoding="UTF-8" standalone="no"?>
<svg
   xmlns:dc="http://purl.org/dc/elements/1.1/"
   xmlns:cc="http://creativecommons.org/ns#"
   xmlns:rdf="http://www.w3.org/1999/02/22-rdf-syntax-ns#"
   xmlns:svg="http://www.w3.org/2000/svg"
   xmlns="http://www.w3.org/2000/svg"
   viewBox="0 0 749.73749 118.525"
   height="118.525"
   width="749.73749"
   xml:space="preserve"
   version="1.1"
   id="svg3567"><metadata
     id="metadata3573"><rdf:RDF><cc:Work
         rdf:about=""><dc:format>image/svg+xml</dc:format><dc:type
           rdf:resource="http://purl.org/dc/dcmitype/StillImage" /><dc:title></dc:title></cc:Work></rdf:RDF></metadata><defs
     id="defs3571" /><g
     transform="matrix(1.25,0,0,-1.25,0,118.525)"
     id="g3575"><g
       transform="scale(0.1,0.1)"
       id="g3577"><path
         id="path3579"
         style="fill:#211c1d;fill-opacity:1;fill-rule:evenodd;stroke:none"
         d="M 103.273,39.8125 C 412.047,238.141 762.043,95.4727 936.387,0 694.898,95.375 340.855,117.738 103.273,39.8125" /><path
         id="path3581"
         style="fill:#211c1d;fill-opacity:1;fill-rule:evenodd;stroke:none"
         d="m 178.711,155.145 c -50.16,-37.04 -78.434,-68.2817 -78.434,-68.2817 0,-1.3477 29.168,16.3397 78.434,37.1207 l 0,31.161 z m 0,123 c -32.531,62.988 -21.313,134.476 -21.313,134.476 0,0 -55.074,-126.269 21.313,-201.465 l 0,66.989 z m 0,335.48 0,-114.703 C 127.852,469.684 93.668,415.266 93.668,352.949 c 0,-62.297 34.184,-116.699 85.043,-145.953 l 0,-20.461 C 158.223,172.676 138.227,157.902 121.688,145.215 48.4766,191.914 0,273.203 0,365.684 0,480.492 74.6953,578.055 178.711,613.625 l 0,0 z m 0,-114.703 0,114.703 c 23.594,8.063 48.676,12.938 74.75,14.098 -1.348,-13.094 -2.031,-26.395 -2.031,-39.852 0,-22.601 1.961,-44.754 5.711,-66.305 -28.508,-1.207 -55.2,-9.3 -78.43,-22.644 z m 0,-312.387 c 17.949,12.129 36.281,23.57 53.059,32.281 -8.196,5.223 -15.868,11.172 -22.786,17.977 -12.882,12.66 -22.754,26.773 -30.273,41.352 l 0,-66.989 1.973,-1.949 c 3.222,-3.035 6.613,-5.883 10.086,-8.523 -4.122,1.957 -8.137,4.07 -12.059,6.312 l 0,-20.461 z m 0,-62.551 0,31.161 c 96.512,71.234 274.086,163.933 487.594,97.027 324.484,-101.68 530.985,-240.004 781.735,-177.7462 250.75,62.2462 272.88,199.2112 272.88,199.2112 0,0 -44.27,-193.4417 -291.33,-235.8831 C 1182.55,-4.70703 954.965,42.8906 665.508,150.801 470.133,223.633 281.031,167.141 178.711,123.984 l 0,0 z m 466.617,824.204 c 148.363,0 276.059,-87.465 333.078,-213.016 l -116.07,0 c -51.227,63.195 -130.008,103.695 -218.367,103.695 -86.891,0 -164.524,-39.14 -215.805,-100.558 2.758,2.199 5.559,4.371 8.5,6.468 121.297,86.582 283.063,-8.851 283.063,-8.851 0,0 -153.715,44.433 -257.661,-28.426 -103.918,-72.871 -87.214,-218.742 -87.214,-218.742 0,0 -0.684,1.93 -1.735,5.445 0.434,-1.68 0.883,-3.348 1.36,-5.027 -24.926,18.359 -55.145,30.344 -88.039,33.496 -3.922,21.16 -5.981,42.933 -5.981,65.199 0,199 163.348,360.317 364.871,360.317 l 0,0" /><path
         id="path3583"
         style="fill:#211c1d;fill-opacity:1;fill-rule:evenodd;stroke:none"
         d="m 994.793,204.477 c 0,0 154.877,-79.289 300.527,-66.379 145.64,12.914 189.89,64.527 189.89,64.527 0,0 -53.46,-98.637 -193.58,-104.168 -140.13,-5.5312 -296.837,102.32 -296.837,106.02" /><path
         id="path3585"
         style="fill:#211c1d;fill-opacity:1;fill-rule:evenodd;stroke:none"
         d="m 876.047,575.211 130.184,0 0,130.176 -130.184,0 0,-130.176 z" /><path
         id="path3587"
         style="fill:#211c1d;fill-opacity:1;fill-rule:evenodd;stroke:none"
         d="m 1393.04,244.035 100.691,0 0,100.684 -100.691,0 0,-100.684 z" /><path
         id="path3589"
         style="fill:#211c1d;fill-opacity:1;fill-rule:evenodd;stroke:none"
         d="m 1032.92,651.094 173.598,0 0,173.574 -173.598,0 0,-173.574 z" /><path
         id="path3591"
         style="fill:#211c1d;fill-opacity:1;fill-rule:evenodd;stroke:none"
         d="m 1536.9,350.711 173.613,0 0,173.57 -173.613,0 0,-173.57 z" /><path
         id="path3593"
         style="fill:#211c1d;fill-opacity:1;fill-rule:evenodd;stroke:none"
         d="m 1223.17,540.988 96.7773,0 0,96.7617 -96.7773,0 0,-96.7617 z" /><path
         id="path3595"
         style="fill:#211c1d;fill-opacity:1;fill-rule:evenodd;stroke:none"
         d="m 1287.89,350.375 96.7813,0 0,96.7617 -96.7813,0 0,-96.7617 z" /><path
         id="path3597"
         style="fill:#211c1d;fill-opacity:1;fill-rule:evenodd;stroke:none"
         d="m 1084.16,340.715 96.7891,0 0,96.7734 -96.7891,0 0,-96.7734 z" /><path
         id="path3599"
         style="fill:#211c1d;fill-opacity:1;fill-rule:evenodd;stroke:none"
         d="m 1423.43,537.641 96.7813,0 0,96.7773 -96.7813,0 0,-96.7773 z" /><path
         id="path3601"
         style="fill:#211c1d;fill-opacity:1;fill-rule:nonzero;stroke:none"
         d="m 2392.54,440.66 c 0,30.371 -4.09,57.621 -12.25,81.738 -8.18,24.122 -19.79,44.543 -34.84,61.262 -15.06,16.715 -33.38,29.539 -54.94,38.477 -21.57,8.933 -45.89,13.402 -72.94,13.402 l -107.58,0 0,-389.75 107.58,0 c 27.05,0 51.37,4.461 72.94,13.399 21.56,8.933 39.88,21.757 54.94,38.476 15.05,16.719 26.66,37.137 34.84,61.258 8.16,24.121 12.25,51.367 12.25,81.738 z m 105.29,0 c 0,-40.574 -6.77,-77.851 -20.3,-111.797 -13.53,-33.945 -32.54,-63.164 -57.04,-87.675 -24.5,-24.5 -53.99,-43.516 -88.44,-57.04 -34.46,-13.535 -72.62,-20.293 -114.48,-20.293 l -211.34,0 0,553.618 211.34,0 c 41.86,0 80.02,-6.836 114.48,-20.485 34.45,-13.656 63.94,-32.675 88.44,-57.05 24.5,-24.375 43.51,-53.54 57.04,-87.481 13.53,-33.949 20.3,-71.215 20.3,-111.797" /><path
         id="path3603"
         style="fill:#211c1d;fill-opacity:1;fill-rule:nonzero;stroke:none"
         d="m 2635.65,556.668 0,-392.813 -94.56,0 0,392.813 94.56,0 z m 14.17,114.477 c 0,-8.172 -1.66,-15.829 -4.98,-22.973 -3.32,-7.149 -7.72,-13.399 -13.2,-18.762 -5.5,-5.359 -11.94,-9.637 -19.34,-12.824 -7.41,-3.195 -15.31,-4.785 -23.74,-4.785 -8.17,0 -15.88,1.59 -23.16,4.785 -7.27,3.187 -13.59,7.465 -18.95,12.824 -5.36,5.363 -9.64,11.613 -12.83,18.762 -3.19,7.144 -4.78,14.801 -4.78,22.973 0,8.421 1.59,16.332 4.78,23.734 3.19,7.402 7.47,13.785 12.83,19.148 5.36,5.36 11.68,9.625 18.95,12.825 7.28,3.191 14.99,4.785 23.16,4.785 8.43,0 16.33,-1.594 23.74,-4.785 7.4,-3.2 13.84,-7.465 19.34,-12.825 5.48,-5.363 9.88,-11.746 13.2,-19.148 3.32,-7.402 4.98,-15.313 4.98,-23.734" /><path
         id="path3605"
         style="fill:#211c1d;fill-opacity:1;fill-rule:nonzero;stroke:none"
         d="m 2840.1,369.832 c 11.74,0 21.95,1.59 30.63,4.785 8.67,3.192 15.89,7.598 21.63,13.211 5.75,5.617 10.08,12.383 13.02,20.293 2.93,7.91 4.41,16.594 4.41,26.035 0,19.395 -5.82,34.778 -17.43,46.129 -11.61,11.36 -29.03,17.039 -52.26,17.039 -23.22,0 -40.65,-5.679 -52.26,-17.039 -11.61,-11.351 -17.42,-26.734 -17.42,-46.129 0,-9.187 1.46,-17.742 4.4,-25.652 2.93,-7.91 7.28,-14.738 13.02,-20.481 5.74,-5.742 13.02,-10.214 21.82,-13.406 8.81,-3.195 18.96,-4.785 30.44,-4.785 z m 103.76,-222.473 c 0,7.825 -2.3,14.2 -6.89,19.153 -4.6,4.949 -10.86,8.789 -18.76,11.531 -7.92,2.746 -17.17,4.758 -27.76,6.066 -10.6,1.297 -21.82,1.954 -33.69,1.954 -11.87,0 -24.12,0 -36.76,0 -12.63,0 -24.82,1.394 -36.56,4.207 -10.72,-5.868 -19.34,-12.821 -25.85,-20.868 -6.51,-8.039 -9.76,-17.285 -9.76,-27.754 0,-6.894 1.73,-13.332 5.17,-19.335 3.45,-5.997 8.93,-11.165 16.46,-15.508 7.53,-4.336 17.29,-7.7152 29.29,-10.1487 12,-2.4219 26.67,-3.6329 44.03,-3.6329 17.62,0 32.8,1.3672 45.56,4.1016 12.76,2.7461 23.29,6.516 31.59,11.34 8.29,4.824 14.36,10.555 18.19,17.195 3.82,6.653 5.74,13.887 5.74,21.699 z M 2840.1,563.563 c 16.85,0 32.67,-1.723 47.48,-5.172 14.8,-3.45 28.33,-8.489 40.58,-15.121 l 112.95,0 0,-35.227 c 0,-5.871 -1.54,-10.469 -4.61,-13.781 -3.04,-3.321 -8.28,-5.617 -15.68,-6.891 l -35.23,-6.512 c 2.55,-6.636 4.53,-13.644 5.93,-21.046 1.4,-7.415 2.11,-15.196 2.11,-23.36 0,-19.394 -3.89,-36.945 -11.68,-52.648 -7.78,-15.692 -18.51,-29.032 -32.16,-40.008 -13.66,-10.977 -29.86,-19.465 -48.62,-25.461 -18.76,-5.996 -39.12,-8.992 -61.07,-8.992 -14.8,0 -29.23,1.394 -43.26,4.207 -12.26,-7.461 -18.38,-15.809 -18.38,-25.059 0,-7.976 3.64,-13.828 10.92,-17.558 7.27,-3.719 16.84,-6.356 28.71,-7.899 11.87,-1.543 25.33,-2.316 40.39,-2.316 15.06,0 30.5,-0.645 46.32,-1.922 15.83,-1.281 31.27,-3.527 46.33,-6.719 15.06,-3.203 28.53,-8.262 40.39,-15.176 11.87,-6.914 21.45,-16.328 28.71,-28.234 7.29,-11.902 10.92,-27.207 10.92,-45.898 0,-17.411 -4.27,-34.317 -12.83,-50.704 -8.55,-16.3863 -20.93,-30.984 -37.13,-43.7887 -16.21,-12.8007 -36.06,-23.1054 -59.54,-30.9257 -23.49,-7.8047 -50.28,-11.711 -80.4,-11.711 -29.86,0 -55.77,2.8711 -77.72,8.6133 -21.96,5.7422 -40.14,13.3984 -54.56,22.9688 -14.42,9.5703 -25.21,20.6171 -32.35,33.125 -7.15,12.5113 -10.72,25.5193 -10.72,39.0543 0,18.368 5.61,33.817 16.84,46.317 11.23,12.511 26.81,22.461 46.71,29.863 -9.7,5.363 -17.48,12.512 -23.35,21.445 -5.88,8.926 -8.81,20.539 -8.81,34.844 0,5.859 1.02,11.926 3.07,18.184 2.04,6.25 5.17,12.441 9.38,18.566 4.21,6.133 9.5,11.934 15.89,17.422 6.37,5.488 13.91,10.398 22.58,14.734 -19.9,10.723 -35.54,25.02 -46.9,42.883 -11.35,17.871 -17.03,38.797 -17.03,62.793 0,19.395 3.88,36.942 11.67,52.641 7.79,15.699 18.63,29.097 32.55,40.199 13.91,11.105 30.37,19.586 49.39,25.461 19.01,5.867 39.75,8.809 62.21,8.809" /><path
         id="path3607"
         style="fill:#211c1d;fill-opacity:1;fill-rule:nonzero;stroke:none"
         d="m 3162.84,556.668 0,-392.813 -94.57,0 0,392.813 94.57,0 z m 14.17,114.477 c 0,-8.172 -1.67,-15.829 -4.98,-22.973 -3.32,-7.149 -7.72,-13.399 -13.21,-18.762 -5.49,-5.359 -11.94,-9.637 -19.33,-12.824 -7.41,-3.195 -15.32,-4.785 -23.74,-4.785 -8.17,0 -15.89,1.59 -23.16,4.785 -7.28,3.187 -13.6,7.465 -18.96,12.824 -5.36,5.363 -9.64,11.613 -12.82,18.762 -3.19,7.144 -4.78,14.801 -4.78,22.973 0,8.421 1.59,16.332 4.78,23.734 3.18,7.402 7.46,13.785 12.82,19.148 5.36,5.36 11.68,9.625 18.96,12.825 7.27,3.191 14.99,4.785 23.16,4.785 8.42,0 16.33,-1.594 23.74,-4.785 7.39,-3.2 13.84,-7.465 19.33,-12.825 5.49,-5.363 9.89,-11.746 13.21,-19.148 3.31,-7.402 4.98,-15.313 4.98,-23.734" /><path
         id="path3609"
         style="fill:#211c1d;fill-opacity:1;fill-rule:nonzero;stroke:none"
         d="m 3360.4,157.73 c -33.94,0 -60.11,9.629 -78.49,28.907 -18.37,19.269 -27.56,45.879 -27.56,79.824 l 0,219.375 -39.82,0 c -5.11,0 -9.51,1.66 -13.21,4.98 -3.7,3.313 -5.55,8.293 -5.55,14.934 l 0,37.52 63.18,10.335 19.91,107.204 c 1.01,5.101 3.38,9.054 7.08,11.871 3.69,2.8 8.36,4.207 13.97,4.207 l 49.01,0 0,-123.668 103.37,0 0,-67.383 -103.37,0 0,-212.871 c 0,-12.246 3.06,-21.817 9.19,-28.711 6.12,-6.895 14.28,-10.332 24.5,-10.332 5.87,0 10.78,0.695 14.74,2.101 3.95,1.407 7.4,2.872 10.34,4.403 2.93,1.535 5.55,3 7.85,4.406 2.29,1.395 4.59,2.109 6.89,2.109 2.8,0 5.1,-0.714 6.89,-2.109 1.78,-1.406 3.7,-3.516 5.74,-6.32 l 28.33,-45.946 c -13.78,-11.484 -29.61,-20.168 -47.47,-26.035 -17.87,-5.871 -36.37,-8.801 -55.52,-8.801" /><path
         id="path3611"
         style="fill:#211c1d;fill-opacity:1;fill-rule:nonzero;stroke:none"
         d="m 3613.47,222.82 c 9.69,0 18.62,0.879 26.79,2.637 8.17,1.758 15.89,4.395 23.17,7.91 7.27,3.516 14.28,7.852 21.05,12.996 6.76,5.157 13.6,11.25 20.49,18.282 l 0,65.753 c -27.57,0 -50.6,-1.73 -69.11,-5.207 -18.51,-3.464 -33.37,-7.898 -44.6,-13.3 -11.24,-5.399 -19.21,-11.7 -23.94,-18.895 -4.72,-7.199 -7.08,-15.039 -7.08,-23.516 0,-16.718 4.92,-28.671 14.74,-35.871 9.82,-7.195 22.66,-10.789 38.49,-10.789 z m 183.77,-58.965 -42.5,0 c -8.94,0 -15.95,1.336 -21.06,4.024 -5.11,2.676 -8.93,8.094 -11.48,16.269 l -8.43,27.95 c -9.95,-8.938 -19.72,-16.789 -29.29,-23.547 -9.57,-6.766 -19.46,-12.442 -29.67,-17.039 -10.21,-4.59 -21.06,-8.039 -32.54,-10.332 -11.49,-2.305 -24.25,-3.45 -38.29,-3.45 -16.6,0 -31.91,2.239 -45.94,6.719 -14.05,4.473 -26.11,11.203 -36.18,20.168 -10.09,8.953 -17.93,20.106 -23.55,33.418 -5.61,13.32 -8.42,28.809 -8.42,46.485 0,14.851 3.89,29.511 11.67,43.984 7.79,14.461 20.74,27.527 38.87,39.18 18.11,11.648 42.24,21.316 72.36,29.004 30.11,7.675 67.51,11.523 112.18,11.523 l 0,23.144 c 0,26.493 -5.56,46.114 -16.66,58.836 -11.1,12.727 -27.25,19.094 -48.43,19.094 -15.31,0 -28.08,-1.789 -38.29,-5.363 -10.2,-3.574 -19.08,-7.598 -26.61,-12.059 -7.53,-4.465 -14.48,-8.488 -20.86,-12.05 -6.39,-3.586 -13.4,-5.364 -21.06,-5.364 -6.38,0 -11.87,1.653 -16.46,4.973 -4.6,3.32 -8.3,7.402 -11.1,12.25 l -17.24,30.246 c 45.19,41.352 99.68,62.023 163.49,62.023 22.97,0 43.46,-3.769 61.45,-11.293 17.99,-7.535 33.25,-17.992 45.76,-31.394 12.5,-13.399 22.01,-29.422 28.51,-48.051 6.51,-18.625 9.77,-39.047 9.77,-61.254 l 0,-248.094" /><path
         id="path3613"
         style="fill:#211c1d;fill-opacity:1;fill-rule:nonzero;stroke:none"
         d="m 3858.12,163.855 94.5703,0 0,568.93 -94.5703,0 0,-568.93 z" /><path
         id="path3615"
         style="fill:#211c1d;fill-opacity:1;fill-rule:nonzero;stroke:none"
         d="m 4451.93,440.66 c 0,30.371 -4.02,57.621 -12.06,81.738 -8.03,24.122 -19.59,44.606 -34.65,61.454 -15.06,16.843 -33.37,29.73 -54.94,38.671 -21.57,8.93 -45.88,13.399 -72.94,13.399 -27.05,0 -51.43,-4.469 -73.12,-13.399 -21.7,-8.941 -40.14,-21.828 -55.32,-38.671 -15.19,-16.848 -26.87,-37.332 -35.03,-61.454 -8.18,-24.117 -12.26,-51.367 -12.26,-81.738 0,-30.371 4.08,-57.617 12.26,-81.738 8.16,-24.121 19.84,-44.539 35.03,-61.258 15.18,-16.719 33.62,-29.543 55.32,-38.476 21.69,-8.938 46.07,-13.399 73.12,-13.399 27.06,0 51.37,4.461 72.94,13.399 21.57,8.933 39.88,21.757 54.94,38.476 15.06,16.719 26.62,37.137 34.65,61.258 8.04,24.121 12.06,51.367 12.06,81.738 z m 105.68,0 c 0,-40.574 -6.77,-78.164 -20.3,-112.754 -13.53,-34.578 -32.54,-64.511 -57.05,-89.773 -24.5,-25.274 -53.98,-44.992 -88.43,-59.153 -34.47,-14.167 -72.62,-21.25 -114.49,-21.25 -41.85,0 -80.07,7.083 -114.66,21.25 -34.59,14.161 -64.19,33.879 -88.82,59.153 -24.64,25.262 -43.71,55.195 -57.24,89.773 -13.53,34.59 -20.29,72.18 -20.29,112.754 0,40.582 6.76,78.164 20.29,112.754 13.53,34.582 32.6,64.512 57.24,89.781 24.63,25.27 54.23,44.985 88.82,59.153 34.59,14.168 72.81,21.25 114.66,21.25 41.87,0 80.02,-7.153 114.49,-21.442 34.45,-14.297 63.93,-34.015 88.43,-59.152 24.51,-25.145 43.52,-55.008 57.05,-89.59 13.53,-34.59 20.3,-72.172 20.3,-112.754" /><path
         id="path3617"
         style="fill:#211c1d;fill-opacity:1;fill-rule:nonzero;stroke:none"
         d="m 4871.17,473.586 c -2.81,-3.578 -5.54,-6.371 -8.23,-8.422 -2.68,-2.043 -6.57,-3.059 -11.68,-3.059 -4.84,0 -9.57,1.465 -14.16,4.407 -4.6,2.929 -10.09,6.246 -16.47,9.945 -6.38,3.695 -13.97,7.016 -22.78,9.957 -8.8,2.93 -19.72,4.402 -32.73,4.402 -16.59,0 -31.15,-3 -43.65,-9 -12.51,-6 -22.91,-14.601 -31.2,-25.832 -8.3,-11.242 -14.49,-24.836 -18.57,-40.781 -4.08,-15.957 -6.12,-34.015 -6.12,-54.172 0,-20.937 2.22,-39.57 6.7,-55.898 4.46,-16.336 10.9,-30.059 19.33,-41.16 8.42,-11.106 18.62,-19.524 30.63,-25.266 11.99,-5.742 25.52,-8.613 40.58,-8.613 15.06,0 27.25,1.847 36.56,5.547 9.32,3.703 17.17,7.785 23.55,12.257 6.38,4.461 11.93,8.543 16.66,12.247 4.72,3.699 10.01,5.554 15.89,5.554 7.65,0 13.4,-2.937 17.23,-8.808 l 27.17,-34.461 c -10.47,-12.246 -21.81,-22.532 -34.07,-30.821 -12.25,-8.293 -24.95,-14.933 -38.1,-19.902 -13.14,-4.98 -26.73,-8.488 -40.77,-10.527 -14.04,-2.043 -27.95,-3.067 -41.73,-3.067 -24.25,0 -47.09,4.532 -68.53,13.594 -21.45,9.051 -40.15,22.266 -56.09,39.617 -15.96,17.364 -28.59,38.606 -37.9,63.75 -9.32,25.137 -13.98,53.789 -13.98,85.957 0,28.84 4.14,55.578 12.44,80.207 8.29,24.629 20.49,45.942 36.56,63.934 16.09,17.996 35.99,32.098 59.73,42.305 23.74,10.207 51.05,15.32 81.94,15.32 29.34,0 55.06,-4.731 77.14,-14.168 22.07,-9.445 41.93,-22.973 59.53,-40.586 l -24.88,-34.457" /><path
         id="path3619"
         style="fill:#211c1d;fill-opacity:1;fill-rule:nonzero;stroke:none"
         d="m 5086.33,495.027 c -27.57,0 -49.14,-7.789 -64.71,-23.355 -15.57,-15.57 -25.52,-37.652 -29.86,-66.227 l 177.65,0 c 0,12.246 -1.67,23.789 -4.98,34.649 -3.32,10.84 -8.41,20.351 -15.31,28.527 -6.89,8.152 -15.58,14.598 -26.03,19.32 -10.47,4.723 -22.73,7.086 -36.76,7.086 z m -1.92,67.77 c 24.76,0 47.54,-3.961 68.34,-11.871 20.8,-7.914 38.73,-19.469 53.8,-34.649 15.05,-15.191 26.8,-33.824 35.22,-55.898 8.43,-22.082 12.63,-47.277 12.63,-75.617 0,-7.149 -0.32,-13.074 -0.95,-17.801 -0.64,-4.727 -1.79,-8.418 -3.45,-11.106 -1.66,-2.675 -3.89,-4.589 -6.7,-5.742 -2.81,-1.14 -6.38,-1.718 -10.71,-1.718 l -242.75,0 c 2.82,-40.332 13.66,-69.942 32.55,-88.829 18.89,-18.886 43.9,-28.328 75.04,-28.328 15.31,0 28.53,1.785 39.63,5.36 11.1,3.574 20.8,7.531 29.09,11.867 8.29,4.336 15.57,8.289 21.83,11.875 6.25,3.562 12.31,5.359 18.18,5.359 3.83,0 7.15,-0.769 9.96,-2.304 2.81,-1.524 5.23,-3.7 7.28,-6.504 l 27.56,-34.461 c -10.47,-12.246 -22.2,-22.532 -35.22,-30.821 -13.02,-8.293 -26.61,-14.933 -40.78,-19.902 -14.16,-4.98 -28.58,-8.488 -43.26,-10.527 -14.68,-2.043 -28.91,-3.067 -42.69,-3.067 -27.31,0 -52.71,4.532 -76.19,13.594 -23.48,9.051 -43.9,22.449 -61.26,40.195 -17.36,17.743 -31.01,39.688 -40.96,65.86 -9.96,26.152 -14.94,56.465 -14.94,90.926 0,26.796 4.34,52.003 13.02,75.617 8.67,23.601 21.11,44.148 37.33,61.636 16.21,17.481 35.99,31.329 59.34,41.536 23.36,10.207 49.71,15.32 79.06,15.32" /><path
         id="path3621"
         style="fill:#211c1d;fill-opacity:1;fill-rule:nonzero;stroke:none"
         d="m 5417.12,222.82 c 9.7,0 18.62,0.879 26.8,2.637 8.16,1.758 15.88,4.395 23.16,7.91 7.28,3.516 14.29,7.852 21.05,12.996 6.76,5.157 13.6,11.25 20.49,18.282 l 0,65.753 c -27.57,0 -50.6,-1.73 -69.11,-5.207 -18.5,-3.464 -33.37,-7.898 -44.6,-13.3 -11.24,-5.399 -19.21,-11.7 -23.93,-18.895 -4.73,-7.199 -7.08,-15.039 -7.08,-23.516 0,-16.718 4.91,-28.671 14.73,-35.871 9.83,-7.195 22.66,-10.789 38.49,-10.789 z m 183.77,-58.965 -42.5,0 c -8.94,0 -15.95,1.336 -21.06,4.024 -5.1,2.676 -8.93,8.094 -11.48,16.269 l -8.43,27.95 c -9.95,-8.938 -19.71,-16.789 -29.29,-23.547 -9.57,-6.766 -19.46,-12.442 -29.66,-17.039 -10.22,-4.59 -21.07,-8.039 -32.55,-10.332 -11.49,-2.305 -24.25,-3.45 -38.28,-3.45 -16.6,0 -31.92,2.239 -45.95,6.719 -14.04,4.473 -26.1,11.203 -36.18,20.168 -10.09,8.953 -17.93,20.106 -23.55,33.418 -5.61,13.32 -8.42,28.809 -8.42,46.485 0,14.851 3.89,29.511 11.67,43.984 7.79,14.461 20.75,27.527 38.87,39.18 18.12,11.648 42.24,21.316 72.37,29.004 30.1,7.675 67.51,11.523 112.17,11.523 l 0,23.144 c 0,26.493 -5.55,46.114 -16.66,58.836 -11.1,12.727 -27.24,19.094 -48.42,19.094 -15.32,0 -28.09,-1.789 -38.3,-5.363 -10.2,-3.574 -19.08,-7.598 -26.61,-12.059 -7.53,-4.465 -14.48,-8.488 -20.86,-12.05 -6.38,-3.586 -13.39,-5.364 -21.06,-5.364 -6.38,0 -11.87,1.653 -16.46,4.973 -4.6,3.32 -8.3,7.402 -11.1,12.25 l -17.24,30.246 c 45.19,41.352 99.68,62.023 163.49,62.023 22.97,0 43.46,-3.769 61.46,-11.293 17.98,-7.535 33.24,-17.992 45.75,-31.394 12.5,-13.399 22.01,-29.422 28.51,-48.051 6.52,-18.625 9.77,-39.047 9.77,-61.254 l 0,-248.094" /><path
         id="path3623"
         style="fill:#211c1d;fill-opacity:1;fill-rule:nonzero;stroke:none"
         d="m 5655.63,163.855 0,392.813 57.82,0 c 12.25,0 20.29,-5.742 24.12,-17.227 l 6.51,-31.015 c 7.9,8.168 16.27,15.566 25.07,22.207 8.81,6.637 18.13,12.379 27.95,17.23 9.82,4.844 20.35,8.551 31.59,11.106 11.23,2.547 23.48,3.828 36.76,3.828 21.43,0 40.45,-3.641 57.04,-10.914 16.59,-7.278 30.44,-17.485 41.54,-30.629 11.11,-13.152 19.52,-28.852 25.27,-47.094 5.75,-18.246 8.62,-38.344 8.62,-60.297 l 0,-250.008 -94.57,0 0,250.008 c 0,23.985 -5.56,42.559 -16.66,55.715 -11.09,13.129 -27.75,19.707 -49.96,19.707 -16.34,0 -31.65,-3.703 -45.94,-11.105 -14.31,-7.407 -27.83,-17.481 -40.58,-30.242 l 0,-284.083 -94.58,0" /></g></g></svg>