<svg xmlns="http://www.w3.org/2000/svg" viewBox="0 0 18.001 18.001" width="512" height="512"><path d="M15.89 4.013c.81-.496 1.344-1.173 1.606-2.034-.786.416-1.57.702-2.35.86-.704-.756-1.594-1.14-2.66-1.14-1.044 0-1.925.366-2.644 1.078-.715.717-1.076 1.588-1.076 2.605 0 .31.04.585.117.82C5.807 6.096 3.26 4.82 1.255 2.364c-.34.6-.51 1.213-.51 1.846 0 1.302.55 2.333 1.645 3.09-.625-.053-1.176-.21-1.645-.47 0 .93.273 1.705.82 2.388.55.676 1.254 1.107 2.115 1.29-.312.08-.64.12-.98.12-.31 0-.532-.027-.663-.084.23.757.664 1.37 1.29 1.84.626.473 1.345.722 2.153.744C4.148 14.173 2.625 14.69.902 14.69c-.422 0-.72-.006-.902-.038 1.697 1.102 3.586 1.65 5.676 1.65 2.14 0 4.03-.543 5.674-1.627 1.645-1.078 2.86-2.408 3.64-3.974.783-1.563 1.17-3.19 1.17-4.89v-.47c.76-.57 1.372-1.21 1.84-1.92-.68.293-1.382.492-2.11.593z" fill="#FFF"/></svg>