<?xml version="1.0" standalone="yes"?>
<svg xmlns="http://www.w3.org/2000/svg" width="615" height="615">
<path style="fill:#38313a; stroke:none;" d="M0 0L0 53L0 64L0 89L0 94L0 149L0 615L416 615L488 615L545 615L546 615L576 615L595 615L615 615L615 605L615 572L615 566L615 565L615 538L615 531L615 522L615 506L615 464L615 230L615 127L615 124L615 0L604 0L596 0L591 0L583 0L556 0L555 0L553 0L526 0L521 0L466 0L462 0L457 0L415 0L401 0L395 0L382 0L347 0L339 0L315 0L0 0z"/>
<path style="fill:#9c989d; stroke:none;" d="M104 46L104 55L104 56L104 65L104 129L104.722 128.222L104.75 127.694L104.944 126.889L104.972 125.972L105 125L105 124L105 122L105 109L105 64L105 53L105 51L105 50L104.972 49.0278L104.944 48.1111L104.75 47.3055L104.722 46.7778L104 46z"/>
<path style="fill:#ffffff; stroke:none;" d="M105 46L105 56L105 73L105 74L105 84L105 100L105 129L113 129L115 129L117 129.028L118 129.083L120 129.389L121 129.611L123 129.917L124 129.972L126 130L127 130L130 130L132 130L134 130.028L135 130.083L137 130.389L138 130.611L140 130.917L140.944 130.972L141.944 131L144 131L145 132L145 264L145 527L146.5 528L147.056 528.222L148.056 528.806L150 529.778L151 530.222L152 530.778L153 531.222L154 531.778L155 532.222L156 532.778L157 533.222L159 534.222L160 534.75L161 535.167L162 535.611L164 536.389L166 537.25L167 537.75L169 538.611L171 539.389L173 540.194L174 540.611L175 540.972L176 541.333L177 541.667L179 542.333L185 544.333L191 546.333L193 547L194 547.306L195 547.611L197 548.139L198 548.361L199 548.639L200 548.861L202 549.361L203 549.639L204 549.861L205 550.139L206 550.361L208 550.861L209 551.139L211 551.639L212 551.861L213 552.139L214 552.361L215 552.639L216 552.861L218 553.361L219 553.611L221 553.944L222 554.056L224 554.389L225 554.611L227 554.944L228 555.056L230 555.389L231 555.611L233 555.944L234 556.056L236 556.389L237 556.611L239 556.944L240 557.056L242 557.389L244 557.778L245 557.917L247 558.083L248 558.222L250 558.611L252 558.917L253 558.972L255 559.083L256 559.222L258 559.611L259 559.778L260 559.917L262 560L263 560L265 560L267 560.028L268 560.083L270 560.389L271 560.611L273 560.917L274 560.972L276 561L277 561L280 561L293 561L305 561L308 561L309 561L311 560.972L312 560.917L314 560.611L315 560.389L317 560.083L318 560.028L320 560L321 559.972L322 559.917L324 559.611L325 559.389L327 559.083L328 559L330 558.778L332 558.389L334 558.056L335 557.944L337 557.611L338 557.389L339 557.194L341 556.806L342 556.611L343 556.389L344 556.194L346 555.806L347 555.611L348 555.361L349 555.139L351 554.611L352 554.306L354 553.694L355 553.389L357 552.861L358 552.611L360 552L361 551.667L363 551L365 550.333L366 549.972L367 549.611L368 549.194L370 548.389L372 547.611L374 546.75L375 546.25L377 545.389L379 544.611L380 544.167L381 543.75L382 543.222L383 542.75L385 541.611L387 540.389L389 539.25L390 538.75L392 537.611L394 536.389L396 535.167L397 534.556L398 533.833L400 532.389L402 531L404 529.583L406 528L408 526.389L410 524.778L411 523.917L413 522L414 521L417 518L419 516L420 515L421.972 513L422.917 512L424.611 510L425.389 509L426.194 508L427.806 506L428.611 505L429.361 504L430.139 503L431.611 501L432.306 500L433 499L434.333 497L435.667 495L436.333 494L437.611 492L438.194 491L439.389 489L440.611 487L441.167 486L441.75 485L442.222 484L443.222 482L443.778 481L444.222 480L444.778 479L445.222 478L445.778 477L446.222 476L447.222 474L447.75 473L448.167 472L448.611 471L449.389 469L449.806 468L450.611 466L451.389 464L452.194 462L452.611 461L453.333 459L454 457L455 454L455.667 452L456 451L456.611 449L456.861 448L457.389 446L457.694 445L458.306 443L458.611 442L459.139 440L459.361 439L459.639 438L459.861 437L460.139 436L460.611 434L460.806 433L461.194 431L461.611 429L461.806 428L462.194 426L462.611 424L462.806 423L463.194 421L463.389 420L463.611 419L463.944 417L464.056 416L464.222 415L464.389 414L464.778 412L464.917 411L465.028 409L465.083 408L465.389 406L465.611 405L465.917 403L465.972 402L466.083 400L466.389 398L466.611 397L466.917 395L466.972 394L467 392L467 390L467.028 389L467.083 388L467.389 386L467.611 385L467.917 383L467.972 382L468 380L468 378L468 372L468 370L468.028 369L468.083 368L468.389 366L468.611 365L468.917 363L468.972 362L469 360L469 359L469 357L469 353L469 352L468.972 350L468.917 349L468.611 347L468.389 346L468.083 344L468.028 343L468 341L468 340L468 334L468 332L467.972 331L467.917 330L467.611 328L467.389 327L467.083 325L467.028 324L467 322L466.972 321L466.917 320L466.611 318L466.222 316L466.083 315L465.917 313L465.778 312L465.389 310L465.056 308L464.944 307L464.611 305L464.389 304L464.194 303L463.806 301L463.611 300L463.389 299L463.194 298L462.806 296L462.611 295L462.139 293L461.861 292L461.639 291L461.139 289L460.861 288L460.639 287L460.361 286L460.139 285L459.611 283L459.306 282L459 281L458.667 280L458 278L457 275L456.333 273L455.972 272L455.611 271L455.194 270L454.389 268L453.611 266L453.194 265L452.389 263L451.611 261L451.167 260L450.75 259L449.778 257L449.222 256L448.778 255L448.222 254L447.222 252L446.75 251L446.167 250L445.611 249L444.389 247L443.194 245L442.611 244L441.389 242L440.194 240L438.972 238L437.611 236L436.861 235L436.139 234L435.361 233L434.639 232L433.861 231L432.361 229L431.611 228L429.917 226L428 224L426.083 222L424.389 220L422.778 218L421.917 217L420.972 216L419 214.083L417 212.389L416 211.611L414 209.944L413 209.056L411 207.389L409 205.806L407 204.194L406 203.417L405 202.694L403 201.333L402 200.667L400 199.389L399 198.806L397 197.611L395 196.389L394 195.833L393 195.25L392 194.778L390 193.778L389 193.222L388 192.778L387 192.222L386 191.778L385 191.222L384 190.778L383 190.222L382 189.778L381 189.25L379 188.389L378 188.028L377 187.667L376 187.333L374 186.611L372 185.806L371 185.389L369 184.667L368 184.333L366 183.694L364 183.194L362 182.806L361 182.611L359 182.139L358 181.861L357 181.639L355 181.139L353 180.639L352 180.389L350 180.083L348 179.917L346 179.611L344 179.222L343 179.083L341 178.917L339 178.611L338 178.389L336 178.083L335 178.028L333 178L331 178L328 178L327 178L325 177.972L324 177.917L322 177.611L321 177.389L319 177.083L318 177.028L316 177L314 177L310 177L308 177.028L307 177.083L305 177.389L304 177.611L302 177.917L301 177.972L299 178L297 178L291 178L289 178L288 178.028L287 178.083L285 178.389L284 178.611L282 178.917L281 178.972L279 179.028L278 179.083L276 179.389L275 179.611L273 179.917L272 179.972L270 180.083L269 180.222L268 180.389L266 180.861L265 181.139L264 181.361L263 181.639L262 181.861L261 182.139L260 182.389L258 183.028L256 183.833L255 184.278L254 184.833L252.056 185.944L251.5 186.306L250 187L250 46L248.5 46L240 46L235 46L105 46z"/>
<path style="fill:#ceccce; stroke:none;" d="M250 46L250 47.5L250 50L250 54L250 67L250 84L250 153L250 178L250 181L250 183L250.111 184.889L250.278 185.667L250.861 186.639L252 187L251.417 184.944L251.222 183.944L251.083 183L251 181L251 180L251 178L251 172L251 152L251 83L251 57L251 53L251 51L250.972 49.0278L250.944 48.1111L250.75 47.3055L250.722 46.7778L250 46z"/>
<path style="fill:#6a656c; stroke:none;" d="M109 129L109.778 129.722L110.25 129.75L111.056 129.944L113 130L112.222 129.278L111.75 129.25L110.944 129.056L109 129z"/>
<path style="fill:#9c989d; stroke:none;" d="M113 129L113.778 129.722L114.25 129.75L115.056 129.944L117 130L116.222 129.278L115.75 129.25L114.944 129.056L113 129z"/>
<path style="fill:#ceccce; stroke:none;" d="M117 129L117.778 129.722L118.25 129.75L119.056 129.944L121 130L120.222 129.278L119.75 129.25L118.944 129.056L117 129z"/>
<path style="fill:#6a656c; stroke:none;" d="M126 130L126.778 130.722L127.25 130.75L128.056 130.944L130 131L129.222 130.278L128.75 130.25L127.944 130.056L126 130z"/>
<path style="fill:#9c989d; stroke:none;" d="M130 130L130.778 130.722L131.25 130.75L132.056 130.944L134 131L133.222 130.278L132.75 130.25L131.944 130.056L130 130z"/>
<path style="fill:#ceccce; stroke:none;" d="M134 130L134.778 130.722L135.25 130.75L136.056 130.944L138 131L137.222 130.278L136.75 130.25L135.944 130.056L134 130z"/>
<path style="fill:#6a656c; stroke:none;" d="M142 131L143 132L142 131z"/>
<path style="fill:#9c989d; stroke:none;" d="M143 131L144 132L143 131z"/>
<path style="fill:#a8a5a9; stroke:none;" d="M144 132L145 133L144 132z"/>
<path style="fill:#6a656c; stroke:none;" d="M144 133L144 199L144 527L144.722 526.222L144.75 525.694L144.944 524.889L144.972 523.972L145 522L145 521L145 519L145 503L145 443L145 224L145 159L145 142L145 139L145 138L144.972 136.028L144.944 135.111L144.75 134.306L144.722 133.778L144 133z"/>
<path style="fill:#69646b; stroke:none;" d="M289 177L289.722 177.722L290.25 177.75L292 178L291.278 177.278L290.75 177.25L289 177z"/>
<path style="fill:#9b989c; stroke:none;" d="M292 177L292.778 177.722L293.306 177.75L294.111 177.944L294.972 177.972L295.944 178L298 178L297.222 177.278L296.694 177.25L295.889 177.056L295.028 177.028L294.056 177L292 177z"/>
<path style="fill:#cdcbce; stroke:none;" d="M298 177L298.778 177.722L299.306 177.75L300.111 177.944L301.028 177.972L301.944 178L302.944 178L305 178L304.222 177.278L303.694 177.25L302.889 177.056L301.972 177.028L301.056 177L300.056 177L298 177M321 177L321.778 177.722L322.306 177.75L323.111 177.944L323.972 177.972L324.944 178L327 178L326.222 177.278L325.694 177.25L324.889 177.056L324.028 177.028L323.056 177L321 177z"/>
<path style="fill:#9b989c; stroke:none;" d="M327 177L327.778 177.722L328.306 177.75L329.111 177.944L329.972 177.972L330.944 178L333 178L332.222 177.278L331.694 177.25L330.889 177.056L330.028 177.028L329.056 177L327 177z"/>
<path style="fill:#69646b; stroke:none;" d="M333 177L333.722 177.722L334.25 177.75L336 178L335.278 177.278L334.75 177.25L333 177z"/>
<path style="fill:#767177; stroke:none;" d="M278.667 178.333L278.667 178.667L279.333 178.667L279.333 178.333L278.667 178.333z"/>
<path style="fill:#9b989c; stroke:none;" d="M280.667 178.333L280.667 178.667L281.333 178.667L281.333 178.333L280.667 178.333z"/>
<path style="fill:#cdcbce; stroke:none;" d="M282 178L282.722 178.722L283.25 178.75L285 179L284.278 178.278L283.75 178.25L282 178z"/>
<path style="fill:#c1bec1; stroke:none;" d="M338.667 178.333L338.667 178.667L339.333 178.667L339.333 178.333L338.667 178.333z"/>
<path style="fill:#827e83; stroke:none;" d="M340.667 178.333L340.667 178.667L341.333 178.667L341.333 178.333L340.667 178.333z"/>
<path style="fill:#514b53; stroke:none;" d="M342.667 178.333L342.667 178.667L343.333 178.667L343.333 178.333L342.667 178.333z"/>
<path style="fill:#69646b; stroke:none;" d="M270.667 179.333L270.667 179.667L271.333 179.667L271.333 179.333L270.667 179.333z"/>
<path style="fill:#b4b1b5; stroke:none;" d="M272.667 179.333L272.667 179.667L273.333 179.667L273.333 179.333L272.667 179.333z"/>
<path style="fill:#dad8da; stroke:none;" d="M274.667 179.333L274.667 179.667L275.333 179.667L275.333 179.333L274.667 179.333z"/>
<path style="fill:#cdcbce; stroke:none;" d="M345.667 179.333L345.667 179.667L346.333 179.667L346.333 179.333L345.667 179.333z"/>
<path style="fill:#8f8b90; stroke:none;" d="M347.667 179.333L347.667 179.667L348.333 179.667L348.333 179.333L347.667 179.333z"/>
<path style="fill:#5e585f; stroke:none;" d="M349.667 179.333L349.667 179.667L350.333 179.667L350.333 179.333L349.667 179.333z"/>
<path style="fill:#827e83; stroke:none;" d="M265 180L265.722 180.722L266.25 180.75L268 181L267.278 180.278L266.75 180.25L265 180z"/>
<path style="fill:#c1bec1; stroke:none;" d="M352 180L353 181L352 180z"/>
<path style="fill:#8f8b90; stroke:none;" d="M353 180L354 181L353 180z"/>
<path style="fill:#827e83; stroke:none;" d="M262 181L263 182L262 181z"/>
<path style="fill:#c1bec1; stroke:none;" d="M263 181L264 182L263 181z"/>
<path style="fill:#cdcbce; stroke:none;" d="M356 181L357 182L356 181z"/>
<path style="fill:#9b989c; stroke:none;" d="M357 181L358 182L357 181z"/>
<path style="fill:#69646b; stroke:none;" d="M358 181L359 182L358 181z"/>
<path style="fill:#6a656c; stroke:none;" d="M258 182L259 183L258 182z"/>
<path style="fill:#a8a4a8; stroke:none;" d="M259 182L260 183L259 182z"/>
<path style="fill:#cdcbce; stroke:none;" d="M360 182L361 183L360 182z"/>
<path style="fill:#9b989c; stroke:none;" d="M361 182L362 183L361 182z"/>
<path style="fill:#69646b; stroke:none;" d="M362 182L363 183L362 182z"/>
<path style="fill:#827e83; stroke:none;" d="M256 183L257 184L256 183z"/>
<path style="fill:#a8a4a8; stroke:none;" d="M365 183L366 184L365 183z"/>
<path style="fill:#6a656c; stroke:none;" d="M366 183L367 184L366 183z"/>
<path style="fill:#a8a4a8; stroke:none;" d="M254 184L255 185L254 184M368 184L369 185L368 184z"/>
<path style="fill:#777278; stroke:none;" d="M252 185L253 186L252 185z"/>
<path style="fill:#8f8b90; stroke:none;" d="M371 185L372 186L371 185z"/>
<path style="fill:#c1bec1; stroke:none;" d="M373 186L374 187L373 186z"/>
<path style="fill:#827e83; stroke:none;" d="M374 186L375 187L374 186z"/>
<path style="fill:#b4b1b5; stroke:none;" d="M376 187L377 188L376 187z"/>
<path style="fill:#767177; stroke:none;" d="M377 187L378 188L377 187z"/>
<path style="fill:#a8a4a8; stroke:none;" d="M379 188L380 189L379 188z"/>
<path style="fill:#b4b1b5; stroke:none;" d="M381 189L382 190L381 189M383 190L384 191L383 190M385 191L386 192L385 191M387 192L388 193L387 192M389 193L390 194L389 193M391 194L392 195L391 194z"/>
<path style="fill:#cdcbce; stroke:none;" d="M393 195L394 196L393 195z"/>
<path style="fill:#8f8b90; stroke:none;" d="M395 196L396 197L395 196z"/>
<path style="fill:#cdcbce; stroke:none;" d="M396 197L397 198L396 197z"/>
<path style="fill:#8f8b90; stroke:none;" d="M398 198L399 199L398 198z"/>
<path style="fill:#9b989c; stroke:none;" d="M401 200L402 201L401 200M404 202L405 203L404 202z"/>
<path style="fill:#837f84; stroke:none;" d="M407 204L408 205L407 204z"/>
<path style="fill:#9b989c; stroke:none;" d="M408 205L409 206L408 205z"/>
<path style="fill:#b4b1b5; stroke:none;" d="M409 206L410 207L409 206z"/>
<path style="fill:#837f84; stroke:none;" d="M413 209L414 210L413 209z"/>
<path style="fill:#9b989c; stroke:none;" d="M414 210L415 211L414 210z"/>
<path style="fill:#c1bec1; stroke:none;" d="M415 211L416 212L415 211z"/>
<path style="fill:#cdcbce; stroke:none;" d="M424 220L425 221L424 220z"/>
<path style="fill:#b4b1b5; stroke:none;" d="M425 221L426 222L425 221M426 222L427 223L426 222M427 223L428 224L427 223z"/>
<path style="fill:#a8a5a9; stroke:none;" d="M428 224L429 225L428 224z"/>
<path style="fill:#837f84; stroke:none;" d="M429 225L430 226L429 225z"/>
<path style="fill:#b4b1b5; stroke:none;" d="M432 229L433 230L432 229z"/>
<path style="fill:#908c91; stroke:none;" d="M433 230L434 231L433 230z"/>
<path style="fill:#b4b1b5; stroke:none;" d="M435 233L436 234L435 233z"/>
<path style="fill:#837f84; stroke:none;" d="M436 234L437 235L436 234z"/>
<path style="fill:#9c989d; stroke:none;" d="M438 237L439 238L438 237M440 240L441 241L440 240z"/>
<path style="fill:#cdcbce; stroke:none;" d="M441 242L442 243L441 242z"/>
<path style="fill:#908c91; stroke:none;" d="M442 243L443 244L442 243z"/>
<path style="fill:#b5b2b6; stroke:none;" d="M443 245L444 246L443 245z"/>
<path style="fill:#cdcbce; stroke:none;" d="M444 247L445 248L444 247z"/>
<path style="fill:#6a656c; stroke:none;" d="M445 248L446 249L445 248z"/>
<path style="fill:#837f84; stroke:none;" d="M446 250L447 251L446 250M447 252L448 253L447 252M448 254L449 255L448 254M449 256L450 257L449 256M450 258L451 259L450 258M451 260L452 261L451 260z"/>
<path style="fill:#6a656c; stroke:none;" d="M452 262L453 263L452 262z"/>
<path style="fill:#b5b2b6; stroke:none;" d="M452 263L453 264L452 263z"/>
<path style="fill:#ceccce; stroke:none;" d="M295 264L295.778 264.722L296.306 264.75L297.056 264.944L297.972 264.972L300 265L299.222 264.278L298.694 264.25L297.944 264.056L297.028 264.028L295 264z"/>
<path style="fill:#9c989d; stroke:none;" d="M286.667 265.333L286.667 265.667L287.333 265.667L287 265.333L286.667 265.333z"/>
<path style="fill:#6a656c; stroke:none;" d="M288 265L288.778 265.722L289.25 265.75L290.056 265.944L292 266L291.222 265.278L290.75 265.25L289.944 265.056L288 265z"/>
<path style="fill:#38313a; stroke:none;" d="M251 467L252.5 467.5L253.056 467.806L255 468.611L256 468.972L258 469.667L260 470.306L261 470.611L263 471.139L264 471.361L265 471.611L266 471.806L268 472.194L270 472.611L272 472.917L273 472.972L275 473.083L277 473.389L278 473.611L280 473.917L281 473.972L283 474L285 474L293 474L300 474L302 474L303 473.972L304 473.917L306 473.611L307 473.389L308 473.194L310 472.806L311 472.583L313 472L314 471.667L316 470.972L317 470.611L319 469.75L320 469.222L321 468.778L322 468.222L323 467.75L325 466.611L326 465.972L328 464.583L330 462.917L332 461L333 460L334 459L335.917 457L337.583 455L338.306 454L339.667 452L340.972 450L341.611 449L342.75 447L343.222 446L344.222 444L345.222 442L345.75 441L346.611 439L347.389 437L348.194 435L348.611 434L348.972 433L349.333 432L350 430L350.611 428L350.861 427L351.139 426L351.361 425L351.639 424L351.861 423L352.139 422L352.361 421L352.639 420L352.861 419L353.139 418L353.611 416L353.806 415L354.194 413L354.611 411L354.778 410L354.917 409L355.083 407L355.222 406L355.611 404L355.917 402L355.972 401L356.083 399L356.389 397L356.611 396L356.917 394L356.972 393L357 391L357 390L357 388L357.083 386L357.389 384L357.611 383L357.917 381L357.972 380L358 378L358 377L358 374L358 361L358 354L358 352L357.972 350L357.917 349L357.611 347L357.389 346L357.083 344L357.028 343L357 342L357 340L356.972 338L356.917 337L356.611 335L356.389 334L356.083 332L355.917 330L355.611 328L355.389 327L355.056 325L354.944 324L354.611 322L354.194 320L353.806 318L353.611 317L353.139 315L352.861 314L352.611 313L352 311L351.667 310L350.667 307L349.667 304L349.333 303L348.611 301L348.194 300L347.361 298L346.944 297L345.944 295L345.361 294L344.833 293L344.25 292L343.75 291L342.611 289L341.306 287L340.611 286L339.861 285L338.361 283L337.611 282L335.917 280L334.972 279.028L334 278.083L332 276.417L330 275L329 274.333L328 273.667L326 272.389L325 271.833L324 271.25L323 270.778L321 269.778L320 269.25L318 268.389L317 268.028L315 267.389L314 267.139L312 266.639L311 266.389L309 266.056L308 265.944L306 265.611L305 265.389L303 265.083L302 265.028L300 265L298 265L296 265L295 265.028L294 265.083L292 265.389L291 265.611L289 265.917L288 266L286 266.222L285 266.389L283 266.861L282 267.139L281 267.361L280 267.639L278 268.167L277 268.444L275 269.25L274 269.778L273 270.222L272 270.778L271 271.222L270 271.778L269 272.25L267 273.389L265 274.694L264 275.417L262 277.083L260.028 279L258.222 281L257.417 282L256.028 284L255.389 285L254.25 287L253.778 288L253.25 289L252.472 291L252.222 292L251.806 294L251.611 295L251.389 296L251.083 298L251.028 299L251 301L251 302L251 305L251 317L251 377L251 467z"/>
<path style="fill:#6a656c; stroke:none;" d="M305 265L306 266L305 265z"/>
<path style="fill:#b5b2b6; stroke:none;" d="M306 265L306.722 265.722L307.25 265.75L309 266L308.278 265.278L307.75 265.25L306 265z"/>
<path style="fill:#908c91; stroke:none;" d="M453 265L454 266L453 265z"/>
<path style="fill:#b5b2b6; stroke:none;" d="M282 266L283 267L282 266z"/>
<path style="fill:#5e585f; stroke:none;" d="M283.667 266.333L283.667 266.667L284.333 266.667L284 266.333L283.667 266.333z"/>
<path style="fill:#777278; stroke:none;" d="M311 266L312 267L311 266z"/>
<path style="fill:#b5b2b6; stroke:none;" d="M312 266L313 267L312 266z"/>
<path style="fill:#c1bfc2; stroke:none;" d="M278 267L279 268L278 267z"/>
<path style="fill:#514b53; stroke:none;" d="M279.667 267.333L279.667 267.667L280.333 267.667L280.333 267.333L279.667 267.333z"/>
<path style="fill:#9c989d; stroke:none;" d="M315 267L316 268L315 267z"/>
<path style="fill:#6a656c; stroke:none;" d="M454 267L455 268L454 267z"/>
<path style="fill:#9c989d; stroke:none;" d="M276 268L277 269L276 268M318 268L319 269L318 268z"/>
<path style="fill:#c1bfc2; stroke:none;" d="M454 268L455 269L454 268z"/>
<path style="fill:#837f84; stroke:none;" d="M274 269L275 270L274 269M320 269L321 270L320 269z"/>
<path style="fill:#b5b2b6; stroke:none;" d="M271 270L272 271L271 270z"/>
<path style="fill:#6a656c; stroke:none;" d="M272 270L273 271L272 270z"/>
<path style="fill:#777278; stroke:none;" d="M322 270L323 271L322 270z"/>
<path style="fill:#ceccce; stroke:none;" d="M323 270L324 271L323 270z"/>
<path style="fill:#9c989d; stroke:none;" d="M455 270L456 271L455 270z"/>
<path style="fill:#6a656c; stroke:none;" d="M270 271L271 272L270 271z"/>
<path style="fill:#777278; stroke:none;" d="M324 271L325 272L324 271z"/>
<path style="fill:#a8a5a9; stroke:none;" d="M268 272L269 273L268 272M326 272L327 273L326 272z"/>
<path style="fill:#777278; stroke:none;" d="M456 272L457 273L456 272z"/>
<path style="fill:#6a656c; stroke:none;" d="M327 273L328 274L327 273z"/>
<path style="fill:#b5b2b6; stroke:none;" d="M456 273L457 274L456 273z"/>
<path style="fill:#9c989d; stroke:none;" d="M265 274L266 275L265 274M329 274L330 275L329 274z"/>
<path style="fill:#837f84; stroke:none;" d="M330 275L331 276L330 275z"/>
<path style="fill:#777278; stroke:none;" d="M457 275L458 276L457 275z"/>
<path style="fill:#b5b2b6; stroke:none;" d="M457 276L458 277L457 276M261 277L262 278L261 277M260 278L261 279L260 278M259 279L260 280L259 279z"/>
<path style="fill:#a8a5a9; stroke:none;" d="M458 279L459 280L458 279z"/>
<path style="fill:#b5b2b6; stroke:none;" d="M258 280L259 281L258 280z"/>
<path style="fill:#a8a5a9; stroke:none;" d="M459 282L460 283L459 282z"/>
<path style="fill:#6a656c; stroke:none;" d="M256 283L257 284L256 283M338 283L339 284L338 283z"/>
<path style="fill:#a8a5a9; stroke:none;" d="M255 284L256 285L255 284z"/>
<path style="fill:#9c989d; stroke:none;" d="M339 284L340 285L339 284z"/>
<path style="fill:#ceccce; stroke:none;" d="M340 285L341 286L340 285z"/>
<path style="fill:#908c91; stroke:none;" d="M460 285L461 286L460 285z"/>
<path style="fill:#837f84; stroke:none;" d="M254 286L255 287L254 286z"/>
<path style="fill:#c1bfc2; stroke:none;" d="M460 286L461 287L460 286z"/>
<path style="fill:#837f84; stroke:none;" d="M341 287L342 288L341 287M253 288L254 289L253 288z"/>
<path style="fill:#c1bfc2; stroke:none;" d="M342 288L343 289L342 288z"/>
<path style="fill:#908c91; stroke:none;" d="M461 289L462 290L461 289z"/>
<path style="fill:#a8a5a9; stroke:none;" d="M252 290L253 291L252 290z"/>
<path style="fill:#837f84; stroke:none;" d="M343 290L344 291L343 290z"/>
<path style="fill:#c1bfc2; stroke:none;" d="M461 290L462 291L461 290z"/>
<path style="fill:#837f84; stroke:none;" d="M344 292L345 293L344 292z"/>
<path style="fill:#b5b2b6; stroke:none;" d="M251 293L252 294L251 293z"/>
<path style="fill:#ceccce; stroke:none;" d="M345 293L346 294L345 293z"/>
<path style="fill:#9c989d; stroke:none;" d="M462 293L463 294L462 293z"/>
<path style="fill:#6a656c; stroke:none;" d="M251.333 294.667L251.333 295.333L251.667 295.333L251.667 294.667L251.333 294.667M345 294L346 295L345 294z"/>
<path style="fill:#ceccce; stroke:none;" d="M462 294L463 295L462 294M346 295L347 296L346 295z"/>
<path style="fill:#6a656c; stroke:none;" d="M463 296L464 297L463 296z"/>
<path style="fill:#ceccce; stroke:none;" d="M347 297L348 298L347 297z"/>
<path style="fill:#b5b2b6; stroke:none;" d="M463 297L463 300L463.694 299.25L463.694 298.806L463.694 297.75L463 297z"/>
<path style="fill:#ceccce; stroke:none;" d="M250 298L250 467L250.722 466.222L250.75 465.694L250.944 464.889L250.972 463.972L251 462L251 460L251 456L251 430L251 337L251 310L251 305L251 303L250.972 301.028L250.944 300.111L250.75 299.306L250.722 298.778L250 298z"/>
<path style="fill:#837f84; stroke:none;" d="M347 298L348 299L347 298z"/>
<path style="fill:#9c989d; stroke:none;" d="M348 300L349 301L348 300z"/>
<path style="fill:#837f84; stroke:none;" d="M464 301L464 304L464.694 303.25L464.694 302.806L464.694 301.75L464 301z"/>
<path style="fill:#b5b2b6; stroke:none;" d="M349 302L350 303L349 302z"/>
<path style="fill:#6a656c; stroke:none;" d="M349 303L350 304L349 303z"/>
<path style="fill:#ceccce; stroke:none;" d="M464 304L465 305L464 304z"/>
<path style="fill:#a8a5a9; stroke:none;" d="M350 305L351 306L350 305z"/>
<path style="fill:#777278; stroke:none;" d="M350 306L351 307L350 306z"/>
<path style="fill:#9c989d; stroke:none;" d="M465.333 307.667L465.333 308.333L465.667 308.333L465.667 307.667L465.333 307.667z"/>
<path style="fill:#b5b2b6; stroke:none;" d="M351 308L352 309L351 308z"/>
<path style="fill:#777278; stroke:none;" d="M351 309L352 310L351 309z"/>
<path style="fill:#e6e5e6; stroke:none;" d="M465.333 309.667L465.333 310.333L465.667 310.333L465.667 309.667L465.333 309.667z"/>
<path style="fill:#b5b2b6; stroke:none;" d="M352 311L353 312L352 311z"/>
<path style="fill:#837f84; stroke:none;" d="M352 312L353 313L352 312M466 313L466 316L466.694 315.25L466.694 314.806L466.694 313.75L466 313z"/>
<path style="fill:#908c91; stroke:none;" d="M353.333 315.667L353.333 316.333L353.667 316.333L353.667 315.667L353.333 315.667z"/>
<path style="fill:#ceccce; stroke:none;" d="M466.333 316.667L466.333 317.333L466.667 317.333L466.667 316.667L466.333 316.667z"/>
<path style="fill:#c1bfc2; stroke:none;" d="M354 319L355 320L354 319z"/>
<path style="fill:#6a656c; stroke:none;" d="M354.333 320.667L354.333 321L354.667 321.333L354.667 320.667L354.333 320.667M467.333 320.667L467.333 321.333L467.667 321.333L467.667 320.667L467.333 320.667z"/>
<path style="fill:#9c989d; stroke:none;" d="M467.333 322.667L467.333 323.333L467.667 323.333L467.667 322.667L467.333 322.667z"/>
<path style="fill:#a8a5a9; stroke:none;" d="M355.333 324.667L355.333 325.333L355.667 325.333L355.667 325L355.333 324.667z"/>
<path style="fill:#ceccce; stroke:none;" d="M467 324L467 328L467.722 327.222L467.889 326L467.722 325.278L467.722 324.778L467 324z"/>
<path style="fill:#6a656c; stroke:none;" d="M355.333 326.667L355.333 327.333L355.667 327.333L355.667 327L355.333 326.667z"/>
<path style="fill:#a8a5a9; stroke:none;" d="M356 330L356 333L356.694 332.25L356.694 331.194L356.694 330.75L356 330z"/>
<path style="fill:#6a656c; stroke:none;" d="M468 331L468 334L468.694 333.25L468.694 332.806L468.694 331.75L468 331M356.333 333.667L356.333 334.333L356.667 334.333L356.667 333.667L356.333 333.667z"/>
<path style="fill:#9c989d; stroke:none;" d="M468 334L468 338L468.722 337.222L468.889 336L468.722 335.278L468.722 334.778L468 334z"/>
<path style="fill:#ceccce; stroke:none;" d="M357.333 338.667L357.333 339.333L357.667 339.333L357.667 338.667L357.333 338.667M468 338L468 347L468.722 346.222L468.75 345.694L468.944 344.889L468.972 343.972L469 342L468.944 340.111L468.75 339.306L468.722 338.778L468 338z"/>
<path style="fill:#9c989d; stroke:none;" d="M357 340L357 343L357.694 342.25L357.694 341.194L357.694 340.75L357 340z"/>
<path style="fill:#6a656c; stroke:none;" d="M357 343L357 347L357.722 346.222L357.722 345.722L357.889 345L357.722 343.778L357 343z"/>
<path style="fill:#ceccce; stroke:none;" d="M358 351L358 361L358.722 360.222L358.75 359.694L358.944 358.889L358.972 357.972L359 356L358.972 354.028L358.944 353.111L358.75 352.306L358.722 351.778L358 351z"/>
<path style="fill:#9c989d; stroke:none;" d="M358 361L358 368L358.722 367.222L358.75 366.694L358.944 365.889L358.972 364.028L358.944 363.111L358.75 362.306L358.722 361.778L358 361z"/>
<path style="fill:#ceccce; stroke:none;" d="M468 365L468 372L468.722 371.222L468.75 370.694L468.944 369.889L468.972 368.972L468.944 367.111L468.75 366.306L468.722 365.778L468 365M358 368L358 379L358.722 378.222L358.75 377.694L358.944 376.889L358.972 375.972L359 375L359 373L358.972 371.028L358.944 370.111L358.75 369.306L358.722 368.778L358 368z"/>
<path style="fill:#9c989d; stroke:none;" d="M468 372L468 378L468.722 377.222L468.75 376.694L468.944 375.889L468.944 374.111L468.75 373.306L468.722 372.778L468 372z"/>
<path style="fill:#6a656c; stroke:none;" d="M468 378L468 382L468.722 381.222L468.722 380.722L468.889 380L468.722 378.778L468 378M357 383L357 387L357.722 386.222L357.722 385.722L357.889 385L357.722 383.778L357 383z"/>
<path style="fill:#ceccce; stroke:none;" d="M467 385L467 389L467.722 388.222L467.722 387.722L467.889 387L467.722 385.778L467 385z"/>
<path style="fill:#9c989d; stroke:none;" d="M357 387L357 391L357.722 390.222L357.722 389.722L357.889 389L357.722 387.778L357 387M467 389L467 392L467.694 391.25L467.694 390.194L467.694 389.75L467 389z"/>
<path style="fill:#ceccce; stroke:none;" d="M357 391L357 394L357.694 393.25L357.694 392.194L357.694 391.75L357 391z"/>
<path style="fill:#6a656c; stroke:none;" d="M467.333 392.667L467.333 393.333L467.667 393.333L467.667 393L467.333 392.667M356.333 396.667L356.333 397.333L356.667 397.333L356.667 396.667L356.333 396.667z"/>
<path style="fill:#ceccce; stroke:none;" d="M466.333 397.667L466.333 398.333L466.667 398.333L466.667 397.667L466.333 397.667z"/>
<path style="fill:#9c989d; stroke:none;" d="M356.333 398.667L356.333 399.333L356.667 399.333L356.667 398.667L356.333 398.667M466 399L466 402L466.694 401.25L466.694 400.194L466.694 399.75L466 399z"/>
<path style="fill:#ceccce; stroke:none;" d="M356 400L356 403L356.694 402.25L356.694 401.194L356.694 400.75L356 400z"/>
<path style="fill:#777278; stroke:none;" d="M355 404L355 407L355.694 406.25L355.694 405.194L355.694 404.75L355 404z"/>
<path style="fill:#ceccce; stroke:none;" d="M465.333 405.667L465.333 406.333L465.667 406.333L465.667 405.667L465.333 405.667M355.333 407.667L355.333 408.333L355.667 408.333L355.667 407.667L355.333 407.667z"/>
<path style="fill:#9c989d; stroke:none;" d="M465.333 407.667L465.333 408.333L465.667 408.333L465.667 407.667L465.333 407.667z"/>
<path style="fill:#5e585f; stroke:none;" d="M465.333 409.667L465.333 410.333L465.667 410.333L465.667 409.667L465.333 409.667z"/>
<path style="fill:#6a656c; stroke:none;" d="M354 411L355 412L354 411z"/>
<path style="fill:#c1bfc2; stroke:none;" d="M354.333 412.667L354.333 413.333L354.667 413.333L354.667 412.667L354.333 412.667z"/>
<path style="fill:#ceccce; stroke:none;" d="M464 413L465 414L464 413z"/>
<path style="fill:#837f84; stroke:none;" d="M464 414L464 417L464.694 416.25L464.694 415.194L464.694 414.75L464 414z"/>
<path style="fill:#777278; stroke:none;" d="M353 416L354 417L353 416z"/>
<path style="fill:#ceccce; stroke:none;" d="M353.333 417.667L353.333 418.333L353.667 418.333L353.667 417.667L353.333 417.667z"/>
<path style="fill:#9c989d; stroke:none;" d="M463.333 419.667L463.333 420.333L463.667 420.333L463.667 420L463.333 419.667z"/>
<path style="fill:#908c91; stroke:none;" d="M352.333 420.667L352.333 421.333L352.667 421.333L352.667 420.667L352.333 420.667z"/>
<path style="fill:#5e585f; stroke:none;" d="M463.333 421.667L463.333 422.333L463.667 422.333L463.667 421.667L463.333 421.667z"/>
<path style="fill:#c1bfc2; stroke:none;" d="M352 422L353 423L352 422z"/>
<path style="fill:#6a656c; stroke:none;" d="M351 424L352 425L351 424z"/>
<path style="fill:#ceccce; stroke:none;" d="M462 424L463 425L462 424z"/>
<path style="fill:#a8a5a9; stroke:none;" d="M351 425L352 426L351 425z"/>
<path style="fill:#777278; stroke:none;" d="M462.333 425.667L462.333 426.333L462.667 426.333L462.667 425.667L462.333 425.667z"/>
<path style="fill:#908c91; stroke:none;" d="M350 428L351 429L350 428z"/>
<path style="fill:#ceccce; stroke:none;" d="M350 429L351 430L350 429M461 429L462 430L461 429z"/>
<path style="fill:#777278; stroke:none;" d="M461.333 430.667L461.333 431.333L461.667 431.333L461.667 430.667L461.333 430.667M349 431L350 432L349 431z"/>
<path style="fill:#c1bfc2; stroke:none;" d="M349 432L350 433L349 432z"/>
<path style="fill:#9c989d; stroke:none;" d="M348 434L349 435L348 434z"/>
<path style="fill:#a8a5a9; stroke:none;" d="M460 434L461 435L460 434z"/>
<path style="fill:#777278; stroke:none;" d="M460 435L461 436L460 435z"/>
<path style="fill:#6a656c; stroke:none;" d="M347 436L348 437L347 436z"/>
<path style="fill:#b5b2b6; stroke:none;" d="M347 437L348 438L347 437z"/>
<path style="fill:#837f84; stroke:none;" d="M459.333 438.667L459.333 439.333L459.667 439.333L459.667 439L459.333 438.667z"/>
<path style="fill:#908c91; stroke:none;" d="M346 439L347 440L346 439z"/>
<path style="fill:#837f84; stroke:none;" d="M345 441L346 442L345 441z"/>
<path style="fill:#a8a5a9; stroke:none;" d="M458 442L459 443L458 442z"/>
<path style="fill:#837f84; stroke:none;" d="M344 443L345 444L344 443z"/>
<path style="fill:#777278; stroke:none;" d="M458 443L459 444L458 443z"/>
<path style="fill:#837f84; stroke:none;" d="M343 445L344 446L343 445z"/>
<path style="fill:#c1bfc2; stroke:none;" d="M457 445L458 446L457 445z"/>
<path style="fill:#837f84; stroke:none;" d="M457 446L458 447L457 446z"/>
<path style="fill:#908c91; stroke:none;" d="M342 447L343 448L342 447z"/>
<path style="fill:#cdcbce; stroke:none;" d="M341 449L342 450L341 449z"/>
<path style="fill:#a8a5a9; stroke:none;" d="M456 449L457 450L456 449z"/>
<path style="fill:#837f84; stroke:none;" d="M340 450L341 451L340 450z"/>
<path style="fill:#c1bec1; stroke:none;" d="M339 452L340 453L339 452z"/>
<path style="fill:#b5b2b6; stroke:none;" d="M455 452L456 453L455 452z"/>
<path style="fill:#777278; stroke:none;" d="M338 453L339 454L338 453z"/>
<path style="fill:#6a656c; stroke:none;" d="M455 453L456 454L455 453z"/>
<path style="fill:#a8a5a9; stroke:none;" d="M454 455L455 456L454 455z"/>
<path style="fill:#b4b1b5; stroke:none;" d="M335 457L336 458L335 457z"/>
<path style="fill:#908c91; stroke:none;" d="M334 458L335 459L334 458z"/>
<path style="fill:#a8a5a9; stroke:none;" d="M453 458L454 459L453 458z"/>
<path style="fill:#837f84; stroke:none;" d="M333 459L334 460L333 459M332 460L333 461L332 460z"/>
<path style="fill:#a8a4a8; stroke:none;" d="M331 461L332 462L331 461z"/>
<path style="fill:#908c91; stroke:none;" d="M452 461L453 462L452 461z"/>
<path style="fill:#b4b1b5; stroke:none;" d="M330 462L331 463L330 462M329 463L330 464L329 463z"/>
<path style="fill:#b5b2b6; stroke:none;" d="M451 463L452 464L451 463z"/>
<path style="fill:#6a656c; stroke:none;" d="M451 464L452 465L451 464z"/>
<path style="fill:#8f8b90; stroke:none;" d="M326 465L327 466L326 465z"/>
<path style="fill:#cdcbce; stroke:none;" d="M325 466L326 467L325 466z"/>
<path style="fill:#9c989d; stroke:none;" d="M450 466L451 467L450 466z"/>
<path style="fill:#cdcbce; stroke:none;" d="M251 467L252 468L251 467z"/>
<path style="fill:#6a656c; stroke:none;" d="M252 467L253 468L252 467z"/>
<path style="fill:#837f84; stroke:none;" d="M323 467L324 468L323 467z"/>
<path style="fill:#827e83; stroke:none;" d="M254 468L255 469L254 468M321 468L322 469L321 468z"/>
<path style="fill:#c1bfc2; stroke:none;" d="M449 468L450 469L449 468z"/>
<path style="fill:#b4b1b5; stroke:none;" d="M256 469L257 470L256 469z"/>
<path style="fill:#6a656c; stroke:none;" d="M257 469L258 470L257 469z"/>
<path style="fill:#827e83; stroke:none;" d="M319 469L320 470L319 469z"/>
<path style="fill:#6a656c; stroke:none;" d="M449 469L450 470L449 469z"/>
<path style="fill:#a8a4a8; stroke:none;" d="M259 470L260 471L259 470z"/>
<path style="fill:#767177; stroke:none;" d="M260 470L261 471L260 470z"/>
<path style="fill:#827e83; stroke:none;" d="M317 470L318 471L317 470z"/>
<path style="fill:#cdcbce; stroke:none;" d="M262 471L263 472L262 471z"/>
<path style="fill:#69646b; stroke:none;" d="M263.667 471.333L264 471.667L264.333 471.667L264 471.333L263.667 471.333z"/>
<path style="fill:#767177; stroke:none;" d="M314 471L315 472L314 471z"/>
<path style="fill:#b4b1b5; stroke:none;" d="M315 471L316 472L315 471z"/>
<path style="fill:#837f84; stroke:none;" d="M448 471L449 472L448 471z"/>
<path style="fill:#8f8b90; stroke:none;" d="M267 472L267.722 472.722L268.25 472.75L270 473L269.278 472.278L268.75 472.25L267 472z"/>
<path style="fill:#767177; stroke:none;" d="M311 472L312 473L311 472z"/>
<path style="fill:#b4b1b5; stroke:none;" d="M312 472L313 473L312 472M272 473L272.722 473.722L273.25 473.75L275 474L274.278 473.278L273.75 473.25L272 473z"/>
<path style="fill:#69646b; stroke:none;" d="M275 473L275.722 473.722L276.25 473.75L278 474L277.278 473.278L276.75 473.25L275 473M306 473L307 474L306 473z"/>
<path style="fill:#b4b1b5; stroke:none;" d="M307.667 473.333L308 473.667L308.333 473.667L308 473.333L307.667 473.333z"/>
<path style="fill:#9c989d; stroke:none;" d="M447 473L448 474L447 473z"/>
<path style="fill:#cdcbce; stroke:none;" d="M280 474L280.778 474.722L281.25 474.75L282.056 474.944L284 475L283.222 474.278L282.75 474.25L281.944 474.056L280 474z"/>
<path style="fill:#9b989c; stroke:none;" d="M284 474L284.778 474.722L285.306 474.75L286.056 474.944L286.972 474.972L289 475L288.222 474.278L287.694 474.25L286.944 474.056L286.028 474.028L284 474z"/>
<path style="fill:#69646b; stroke:none;" d="M289 474L289.778 474.722L290.306 474.75L291.111 474.944L292.028 474.972L294 475L294.944 475L298 475L297.222 474.278L296.694 474.25L295.889 474.056L294.972 474.028L293 474L292.056 474L289 474z"/>
<path style="fill:#9b989c; stroke:none;" d="M298 474L298.778 474.722L299.25 474.75L300.056 474.944L302 475L301.222 474.278L300.75 474.25L299.944 474.056L298 474z"/>
<path style="fill:#cdcbce; stroke:none;" d="M302.667 474.333L303 474.667L303.333 474.667L303 474.333L302.667 474.333z"/>
<path style="fill:#a8a5a9; stroke:none;" d="M446 475L447 476L446 475z"/>
<path style="fill:#b5b2b6; stroke:none;" d="M445 477L446 478L445 477M444 479L445 480L444 479M443 481L444 482L443 481z"/>
<path style="fill:#9c989d; stroke:none;" d="M442 483L443 484L442 483M441 485L442 486L441 485z"/>
<path style="fill:#6a656c; stroke:none;" d="M440 487L441 488L440 487z"/>
<path style="fill:#ceccce; stroke:none;" d="M439 488L440 489L439 488z"/>
<path style="fill:#9c989d; stroke:none;" d="M438 490L439 491L438 490z"/>
<path style="fill:#777278; stroke:none;" d="M437 492L438 493L437 492z"/>
<path style="fill:#c1bfc2; stroke:none;" d="M436 493L437 494L436 493z"/>
<path style="fill:#908c91; stroke:none;" d="M435 495L436 496L435 495z"/>
<path style="fill:#ceccce; stroke:none;" d="M434 496L435 497L434 496z"/>
<path style="fill:#908c91; stroke:none;" d="M433 498L434 499L433 498z"/>
<path style="fill:#ceccce; stroke:none;" d="M432 499L433 500L432 499z"/>
<path style="fill:#6a656c; stroke:none;" d="M431 501L432 502L431 501z"/>
<path style="fill:#9c989d; stroke:none;" d="M430 502L431 503L430 502z"/>
<path style="fill:#ceccce; stroke:none;" d="M429 503L430 504L429 503z"/>
<path style="fill:#837f84; stroke:none;" d="M427 506L428 507L427 506z"/>
<path style="fill:#b5b2b6; stroke:none;" d="M426 507L427 508L426 507z"/>
<path style="fill:#ceccce; stroke:none;" d="M425 508L426 509L425 508z"/>
<path style="fill:#6a656c; stroke:none;" d="M423 511L424 512L423 511z"/>
<path style="fill:#837f84; stroke:none;" d="M422 512L423 513L422 512M421 513L422 514L421 513M420 514L421 515L420 514z"/>
<path style="fill:#b5b2b6; stroke:none;" d="M419 515L420 516L419 515M418 516L419 517L418 516M417 517L418 518L417 517M416 518L417 519L416 518M415 519L416 520L415 519z"/>
<path style="fill:#908c91; stroke:none;" d="M414 520L415 521L414 520z"/>
<path style="fill:#837f84; stroke:none;" d="M413 521L414 522L413 521M412 522L413 523L412 522M411 523L412 524L411 523z"/>
<path style="fill:#b5b2b6; stroke:none;" d="M407 526L408 527L407 526z"/>
<path style="fill:#9c989d; stroke:none;" d="M145 527L146 528L145 527z"/>
<path style="fill:#908c91; stroke:none;" d="M406 527L407 528L406 527z"/>
<path style="fill:#9c989d; stroke:none;" d="M147 528L148 529L147 528z"/>
<path style="fill:#777278; stroke:none;" d="M405 528L406 529L405 528z"/>
<path style="fill:#9c989d; stroke:none;" d="M149 529L150 530L149 529M151 530L152 531L151 530z"/>
<path style="fill:#a8a5a9; stroke:none;" d="M402 530L403 531L402 530z"/>
<path style="fill:#9c989d; stroke:none;" d="M153 531L154 532L153 531z"/>
<path style="fill:#6a656c; stroke:none;" d="M401 531L402 532L401 531z"/>
<path style="fill:#b5b2b6; stroke:none;" d="M155 532L156 533L155 532z"/>
<path style="fill:#c1bfc2; stroke:none;" d="M399 532L400 533L399 532z"/>
<path style="fill:#b5b2b6; stroke:none;" d="M157 533L158 534L157 533z"/>
<path style="fill:#908c91; stroke:none;" d="M398 533L399 534L398 533z"/>
<path style="fill:#b5b2b6; stroke:none;" d="M159 534L160 535L159 534z"/>
<path style="fill:#9c989d; stroke:none;" d="M161 535L162 536L161 535z"/>
<path style="fill:#908c91; stroke:none;" d="M395 535L396 536L395 535z"/>
<path style="fill:#837f84; stroke:none;" d="M163 536L164 537L163 536z"/>
<path style="fill:#ceccce; stroke:none;" d="M164 536L165 537L164 536z"/>
<path style="fill:#c1bfc2; stroke:none;" d="M393 536L394 537L393 536z"/>
<path style="fill:#a8a5a9; stroke:none;" d="M166 537L167 538L166 537z"/>
<path style="fill:#6a656c; stroke:none;" d="M392 537L393 538L392 537z"/>
<path style="fill:#837f84; stroke:none;" d="M168 538L169 539L168 538z"/>
<path style="fill:#9c989d; stroke:none;" d="M390 538L391 539L390 538z"/>
<path style="fill:#b5b2b6; stroke:none;" d="M171 539L172 540L171 539z"/>
<path style="fill:#ceccce; stroke:none;" d="M388 539L389 540L388 539z"/>
<path style="fill:#837f84; stroke:none;" d="M173 540L174 541L173 540z"/>
<path style="fill:#ceccce; stroke:none;" d="M386 540L387 541L386 540z"/>
<path style="fill:#6a656c; stroke:none;" d="M387 540L388 541L387 540M175 541L176 542L175 541z"/>
<path style="fill:#b5b2b6; stroke:none;" d="M176 541L177 542L176 541z"/>
<path style="fill:#6a656c; stroke:none;" d="M385 541L386 542L385 541z"/>
<path style="fill:#837f84; stroke:none;" d="M178 542L179 543L178 542z"/>
<path style="fill:#c1bfc2; stroke:none;" d="M179 542L180 543L179 542z"/>
<path style="fill:#837f84; stroke:none;" d="M383 542L384 543L383 542M181 543L182 544L181 543z"/>
<path style="fill:#c1bfc2; stroke:none;" d="M182 543L183 544L182 543z"/>
<path style="fill:#908c91; stroke:none;" d="M381 543L382 544L381 543z"/>
<path style="fill:#837f84; stroke:none;" d="M184 544L185 545L184 544z"/>
<path style="fill:#c1bfc2; stroke:none;" d="M185 544L186 545L185 544z"/>
<path style="fill:#837f84; stroke:none;" d="M379 544L380 545L379 544z"/>
<path style="fill:#777278; stroke:none;" d="M187 545L188 546L187 545z"/>
<path style="fill:#b5b2b6; stroke:none;" d="M188 545L189 546L188 545z"/>
<path style="fill:#ceccce; stroke:none;" d="M376 545L377 546L376 545z"/>
<path style="fill:#6a656c; stroke:none;" d="M377 545L378 546L377 545z"/>
<path style="fill:#777278; stroke:none;" d="M190 546L191 547L190 546z"/>
<path style="fill:#b5b2b6; stroke:none;" d="M191 546L192 547L191 546M374 546L375 547L374 546z"/>
<path style="fill:#777278; stroke:none;" d="M193 547L194 548L193 547z"/>
<path style="fill:#b5b2b6; stroke:none;" d="M194 547L195 548L194 547z"/>
<path style="fill:#9c989d; stroke:none;" d="M372 547L373 548L372 547z"/>
<path style="fill:#908c91; stroke:none;" d="M197 548L198 549L197 548z"/>
<path style="fill:#c1bfc2; stroke:none;" d="M198 548L199 549L198 548z"/>
<path style="fill:#b5b2b6; stroke:none;" d="M369 548L370 549L369 548z"/>
<path style="fill:#777278; stroke:none;" d="M370 548L371 549L370 548z"/>
<path style="fill:#908c91; stroke:none;" d="M201 549L202 550L201 549z"/>
<path style="fill:#c1bfc2; stroke:none;" d="M202 549L203 550L202 549z"/>
<path style="fill:#908c91; stroke:none;" d="M367 549L368 550L367 549M205 550L206 551L205 550z"/>
<path style="fill:#c1bfc2; stroke:none;" d="M206 550L207 551L206 550z"/>
<path style="fill:#b5b2b6; stroke:none;" d="M364 550L365 551L364 550z"/>
<path style="fill:#6a656c; stroke:none;" d="M208 551L209 552L208 551z"/>
<path style="fill:#9c989d; stroke:none;" d="M209 551L210 552L209 551z"/>
<path style="fill:#ceccce; stroke:none;" d="M210 551L211 552L210 551z"/>
<path style="fill:#a8a5a9; stroke:none;" d="M361 551L362 552L361 551z"/>
<path style="fill:#6a656c; stroke:none;" d="M362 551L363 552L362 551M212 552L213 553L212 552z"/>
<path style="fill:#9c989d; stroke:none;" d="M213 552L214 553L213 552z"/>
<path style="fill:#ceccce; stroke:none;" d="M214 552L215 553L214 552z"/>
<path style="fill:#a8a5a9; stroke:none;" d="M358 552L359 553L358 552z"/>
<path style="fill:#b5b2b6; stroke:none;" d="M217.667 553.333L218 553.667L218.333 553.667L218 553.333L217.667 553.333z"/>
<path style="fill:#ceccce; stroke:none;" d="M354 553L355 554L354 553z"/>
<path style="fill:#908c91; stroke:none;" d="M355 553L356 554L355 553M221 554L221.722 554.722L222.25 554.75L224 555L223.278 554.278L222.75 554.25L221 554z"/>
<path style="fill:#ceccce; stroke:none;" d="M224 554L225 555L224 554z"/>
<path style="fill:#a8a5a9; stroke:none;" d="M351 554L352 555L351 554z"/>
<path style="fill:#777278; stroke:none;" d="M352 554L353 555L352 554z"/>
<path style="fill:#6a656c; stroke:none;" d="M227 555L228 556L227 555z"/>
<path style="fill:#c1bfc2; stroke:none;" d="M228 555L228.722 555.722L229.25 555.75L231 556L230.278 555.278L229.75 555.25L228 555z"/>
<path style="fill:#a8a5a9; stroke:none;" d="M347 555L348 556L347 555z"/>
<path style="fill:#777278; stroke:none;" d="M348 555L349 556L348 555z"/>
<path style="fill:#837f84; stroke:none;" d="M232 556L232.722 556.722L233.25 556.75L235 557L234.278 556.278L233.75 556.25L232 556z"/>
<path style="fill:#e7e6e7; stroke:none;" d="M235.667 556.333L236 556.667L236.333 556.667L236.333 556.333L235.667 556.333z"/>
<path style="fill:#ceccce; stroke:none;" d="M342 556L343 557L342 556z"/>
<path style="fill:#777278; stroke:none;" d="M343.667 556.333L344 556.667L344.333 556.667L344 556.333L343.667 556.333z"/>
<path style="fill:#908c91; stroke:none;" d="M238 557L238.722 557.722L239.25 557.75L241 558L240.278 557.278L239.75 557.25L238 557z"/>
<path style="fill:#dad9db; stroke:none;" d="M241.667 557.333L242 557.667L242.333 557.667L242 557.333L241.667 557.333z"/>
<path style="fill:#ceccce; stroke:none;" d="M337 557L338 558L337 557z"/>
<path style="fill:#777278; stroke:none;" d="M338.667 557.333L338.667 557.667L339.333 557.667L339.333 557.333L338.667 557.333M245.667 558.333L246 558.667L246.333 558.667L246 558.333L245.667 558.333z"/>
<path style="fill:#b5b2b6; stroke:none;" d="M247 558L247.722 558.722L248.25 558.75L250 559L249.278 558.278L248.75 558.25L247 558z"/>
<path style="fill:#a8a5a9; stroke:none;" d="M331 558L331.722 558.722L332.25 558.75L334 559L333.278 558.278L332.75 558.25L331 558z"/>
<path style="fill:#514b53; stroke:none;" d="M334.667 558.333L334.667 558.667L335.333 558.667L335.333 558.333L334.667 558.333z"/>
<path style="fill:#837f84; stroke:none;" d="M253 559L253.722 559.722L254.25 559.75L256 560L255.278 559.278L254.75 559.25L253 559z"/>
<path style="fill:#ceccce; stroke:none;" d="M256.667 559.333L256.667 559.667L257.333 559.667L257.333 559.333L256.667 559.333z"/>
<path style="fill:#c1bfc2; stroke:none;" d="M324.667 559.333L324.667 559.667L325.333 559.667L325.333 559.333L324.667 559.333z"/>
<path style="fill:#837f84; stroke:none;" d="M326 559L326.722 559.722L327.25 559.75L329 560L328.278 559.278L327.75 559.25L326 559z"/>
<path style="fill:#6a656c; stroke:none;" d="M262 560L262.722 560.722L263.25 560.75L265 561L264.278 560.278L263.75 560.25L262 560z"/>
<path style="fill:#9c989d; stroke:none;" d="M265 560L265.722 560.722L266.25 560.75L268 561L267.278 560.278L266.75 560.25L265 560z"/>
<path style="fill:#ceccce; stroke:none;" d="M268 560L268.722 560.722L269.25 560.75L271 561L270.278 560.278L269.75 560.25L268 560M314 560L314.722 560.722L315.25 560.75L317 561L316.278 560.278L315.75 560.25L314 560z"/>
<path style="fill:#908c91; stroke:none;" d="M317.667 560.333L317.667 560.667L318.333 560.667L318 560.333L317.667 560.333z"/>
<path style="fill:#6a656c; stroke:none;" d="M319.667 560.333L320 560.667L320.333 560.667L320.333 560.333L319.667 560.333M274 561L274.778 561.722L275.306 561.75L276.111 561.944L276.972 561.972L277.944 562L280 562L279.222 561.278L278.694 561.25L277.889 561.056L277.028 561.028L276.056 561L274 561z"/>
<path style="fill:#9c989d; stroke:none;" d="M280 561L280.778 561.722L281.306 561.75L282.111 561.944L283.028 561.972L285 562L286.944 562L290 562L289.222 561.278L288.694 561.25L287.889 561.056L286.972 561.028L285 561L283.056 561L280 561z"/>
<path style="fill:#ceccce; stroke:none;" d="M290 561L290.778 561.722L291.306 561.75L292.111 561.944L292.972 561.972L293.944 562L296 562L295.222 561.278L294.694 561.25L293.889 561.056L293.028 561.028L292.056 561L290 561z"/>
<path style="fill:#9c989d; stroke:none;" d="M296 561L296.778 561.722L297.306 561.75L298.111 561.944L299.028 561.972L301 562L301.944 562L305 562L304.222 561.278L303.694 561.25L302.889 561.056L301.972 561.028L300 561L299.056 561L296 561z"/>
<path style="fill:#6a656c; stroke:none;" d="M305 561L305.778 561.722L306.306 561.75L307.056 561.944L307.972 561.972L310 562L309.222 561.278L308.694 561.25L307.944 561.056L307.028 561.028L305 561z"/>
</svg>
